<svg xmlns="http://www.w3.org/2000/svg" xmlns:xlink="http://www.w3.org/1999/xlink" width="500" zoomAndPan="magnify" viewBox="0 0 375 374.999991" height="500" preserveAspectRatio="xMidYMid meet" version="1.0"><defs><clipPath id="7669d5d86f"><path d="M 37.5 37.5 L 337.5 37.5 L 337.5 337.5 L 37.5 337.5 Z M 37.5 37.5 " clip-rule="nonzero"/></clipPath><clipPath id="713738a9ea"><path d="M 61.5 37.5 L 313.5 37.5 C 319.863281 37.5 325.96875 40.027344 330.46875 44.53125 C 334.972656 49.03125 337.5 55.136719 337.5 61.5 L 337.5 313.5 C 337.5 319.863281 334.972656 325.96875 330.46875 330.46875 C 325.96875 334.972656 319.863281 337.5 313.5 337.5 L 61.5 337.5 C 55.136719 337.5 49.03125 334.972656 44.53125 330.46875 C 40.027344 325.96875 37.5 319.863281 37.5 313.5 L 37.5 61.5 C 37.5 55.136719 40.027344 49.03125 44.53125 44.53125 C 49.03125 40.027344 55.136719 37.5 61.5 37.5 Z M 61.5 37.5 " clip-rule="nonzero"/></clipPath><clipPath id="5c1e433db6"><path d="M 0.5 0.5 L 300.5 0.5 L 300.5 300.5 L 0.5 300.5 Z M 0.5 0.5 " clip-rule="nonzero"/></clipPath><clipPath id="0144261d0c"><path d="M 24.5 0.5 L 276.5 0.5 C 282.863281 0.5 288.96875 3.027344 293.46875 7.53125 C 297.972656 12.03125 300.5 18.136719 300.5 24.5 L 300.5 276.5 C 300.5 282.863281 297.972656 288.96875 293.46875 293.46875 C 288.96875 297.972656 282.863281 300.5 276.5 300.5 L 24.5 300.5 C 18.136719 300.5 12.03125 297.972656 7.53125 293.46875 C 3.027344 288.96875 0.5 282.863281 0.5 276.5 L 0.5 24.5 C 0.5 18.136719 3.027344 12.03125 7.53125 7.53125 C 12.03125 3.027344 18.136719 0.5 24.5 0.5 Z M 24.5 0.5 " clip-rule="nonzero"/></clipPath><clipPath id="76a37ff213"><rect x="0" width="301" y="0" height="301"/></clipPath></defs><g clip-path="url(#7669d5d86f)"><g clip-path="url(#713738a9ea)"><g transform="matrix(1, 0, 0, 1, 37, 37)"><g clip-path="url(#76a37ff213)"><g clip-path="url(#5c1e433db6)"><g clip-path="url(#0144261d0c)"><path fill="#4556ff" d="M 0.5 0.5 L 300.5 0.5 L 300.5 300.5 L 0.5 300.5 Z M 0.5 0.5 " fill-opacity="1" fill-rule="nonzero"/></g></g></g></g></g></g><path fill="#1f2123" d="M 127.511719 103.210938 C 135.183594 102.578125 142.042969 104.382812 148.300781 108.921875 C 161.214844 118.296875 164.226562 137.230469 154.492188 150.09375 L 173.796875 166.804688 C 176.691406 163.9375 181.867188 162.050781 185.878906 161.5625 C 192.160156 160.761719 198.496094 162.554688 203.433594 166.519531 C 209.976562 159.867188 217.015625 153.539062 223.667969 146.984375 C 226.371094 144.320312 229.15625 141.585938 231.96875 139.046875 C 231.625 133.128906 232.058594 126.195312 231.933594 120.179688 C 232.171875 117.109375 231.632812 113.855469 231.910156 110.808594 C 232.492188 104.359375 238.265625 104.765625 242.558594 104.777344 L 251.605469 104.804688 C 256.269531 104.820312 260.964844 104.726562 265.597656 104.878906 C 268.152344 104.964844 271.246094 107.269531 271.421875 109.808594 C 271.761719 114.652344 271.40625 119.707031 271.648438 124.566406 C 271.886719 129.316406 271.988281 134.070312 271.457031 138.796875 C 271.070312 141.933594 268.488281 143.878906 265.507812 144.054688 C 263.753906 144.15625 262.035156 144.140625 260.285156 144.144531 L 251.109375 144.140625 L 242.867188 144.132812 C 241.398438 144.132812 239.1875 144.203125 237.804688 144.03125 C 235.78125 146.332031 233.214844 148.691406 230.976562 150.808594 C 223.460938 157.898438 216.175781 165.378906 208.570312 172.363281 C 209.503906 174.214844 210.386719 175.335938 210.960938 177.507812 C 212.820312 184.503906 212.011719 190.28125 208.640625 196.476562 C 210.148438 197.566406 212.046875 199.28125 213.46875 200.523438 L 220.816406 206.976562 C 225.722656 211.320312 230.78125 215.523438 235.71875 219.839844 C 237.273438 218.679688 238.542969 217.769531 240.304688 216.929688 C 245.429688 214.460938 251.332031 214.164062 256.679688 216.097656 C 267.304688 219.914062 272.953125 230.894531 270.003906 241.726562 C 269.773438 242.574219 269.441406 243.445312 269.136719 244.273438 C 268.746094 245.25 267.707031 247.054688 267.109375 247.925781 C 263.980469 252.484375 259.179688 255.628906 253.746094 256.667969 C 241.679688 258.921875 230.65625 251.476562 228.46875 239.410156 C 227.730469 235.351562 228.4375 229.363281 230.820312 225.914062 C 228.929688 224.058594 226.074219 221.824219 223.996094 220.023438 L 211.335938 208.988281 C 208.832031 206.8125 206 204.511719 203.613281 202.253906 C 203 202.859375 202.183594 203.398438 201.46875 203.882812 C 193.816406 209.042969 182.667969 208.8125 175.1875 203.359375 C 164.261719 213.523438 153.316406 224.488281 142.527344 234.863281 C 140.089844 237.175781 137.664062 239.5 135.25 241.835938 C 133.675781 243.386719 132.023438 245.15625 130.320312 246.570312 C 129.789062 247.015625 128.632812 247.277344 127.9375 247.269531 C 126.917969 247.261719 125.949219 246.839844 125.253906 246.09375 C 124.507812 245.289062 124.269531 244.363281 124.277344 243.289062 C 124.292969 240.796875 127.082031 238.957031 128.804688 237.289062 L 138.910156 227.597656 C 145.921875 220.722656 152.972656 213.886719 160.0625 207.089844 C 163.277344 203.976562 166.449219 200.789062 169.722656 197.746094 C 168.015625 195.117188 166.734375 192.589844 166.007812 189.523438 C 164.679688 183.785156 165.65625 177.753906 168.722656 172.726562 L 157.871094 163.347656 C 155.160156 161.042969 151.722656 158.253906 149.238281 155.78125 C 144.085938 159.472656 140.214844 161.355469 133.828125 162.097656 C 107.617188 165.136719 90.046875 134.570312 107.304688 113.835938 C 112.359375 107.75 119.632812 103.925781 127.511719 103.210938 Z M 132.058594 154.625 C 144.242188 153.707031 153.351562 143.050781 152.363281 130.871094 C 151.371094 118.695312 140.660156 109.648438 128.488281 110.710938 C 116.417969 111.765625 107.464844 122.367188 108.445312 134.445312 C 109.429688 146.519531 119.976562 155.535156 132.058594 154.625 Z M 239.707031 136.386719 C 247.585938 136.386719 255.800781 136.265625 263.652344 136.410156 C 263.964844 135.921875 263.796875 114.839844 263.777344 112.492188 C 256.128906 112.628906 247.398438 112.652344 239.6875 112.570312 L 239.703125 130.410156 C 239.695312 132.253906 239.777344 134.597656 239.707031 136.386719 Z M 251.011719 249.300781 C 258.382812 248.4375 263.660156 241.761719 262.796875 234.390625 C 261.9375 227.019531 255.261719 221.742188 247.890625 222.605469 C 240.519531 223.464844 235.238281 230.140625 236.101562 237.511719 C 236.964844 244.886719 243.640625 250.164062 251.011719 249.300781 Z M 251.011719 249.300781 " fill-opacity="1" fill-rule="nonzero"/></svg>