<svg xmlns="http://www.w3.org/2000/svg" xmlns:xlink="http://www.w3.org/1999/xlink" width="500" zoomAndPan="magnify" viewBox="0 0 375 374.999991" height="500" preserveAspectRatio="xMidYMid meet" version="1.0"><defs><clipPath id="84b4bede83"><path d="M 37.5 37.5 L 337.5 37.5 L 337.5 337.5 L 37.5 337.5 Z M 37.5 37.5 " clip-rule="nonzero"/></clipPath><clipPath id="99a063f459"><path d="M 61.5 37.5 L 313.5 37.5 C 319.863281 37.5 325.96875 40.027344 330.46875 44.53125 C 334.972656 49.03125 337.5 55.136719 337.5 61.5 L 337.5 313.5 C 337.5 319.863281 334.972656 325.96875 330.46875 330.46875 C 325.96875 334.972656 319.863281 337.5 313.5 337.5 L 61.5 337.5 C 55.136719 337.5 49.03125 334.972656 44.53125 330.46875 C 40.027344 325.96875 37.5 319.863281 37.5 313.5 L 37.5 61.5 C 37.5 55.136719 40.027344 49.03125 44.53125 44.53125 C 49.03125 40.027344 55.136719 37.5 61.5 37.5 Z M 61.5 37.5 " clip-rule="nonzero"/></clipPath><clipPath id="8428e3e2c9"><path d="M 0.5 0.5 L 300.5 0.5 L 300.5 300.5 L 0.5 300.5 Z M 0.5 0.5 " clip-rule="nonzero"/></clipPath><clipPath id="6fe8b38a04"><path d="M 24.5 0.5 L 276.5 0.5 C 282.863281 0.5 288.96875 3.027344 293.46875 7.53125 C 297.972656 12.03125 300.5 18.136719 300.5 24.5 L 300.5 276.5 C 300.5 282.863281 297.972656 288.96875 293.46875 293.46875 C 288.96875 297.972656 282.863281 300.5 276.5 300.5 L 24.5 300.5 C 18.136719 300.5 12.03125 297.972656 7.53125 293.46875 C 3.027344 288.96875 0.5 282.863281 0.5 276.5 L 0.5 24.5 C 0.5 18.136719 3.027344 12.03125 7.53125 7.53125 C 12.03125 3.027344 18.136719 0.5 24.5 0.5 Z M 24.5 0.5 " clip-rule="nonzero"/></clipPath><clipPath id="93c633e3ec"><rect x="0" width="301" y="0" height="301"/></clipPath></defs><g clip-path="url(#84b4bede83)"><g clip-path="url(#99a063f459)"><g transform="matrix(1, 0, 0, 1, 37, 37)"><g clip-path="url(#93c633e3ec)"><g clip-path="url(#8428e3e2c9)"><g clip-path="url(#6fe8b38a04)"><path fill="#4556ff" d="M 0.5 0.5 L 300.5 0.5 L 300.5 300.5 L 0.5 300.5 Z M 0.5 0.5 " fill-opacity="1" fill-rule="nonzero"/></g></g></g></g></g></g><path fill="#171e20" d="M 199.023438 96.886719 C 201.855469 96.21875 207.011719 97.851562 209.246094 99.609375 C 211.574219 101.445312 213.867188 103.8125 215.996094 105.894531 L 228.1875 117.859375 C 237.585938 126.929688 246.9375 136.042969 256.242188 145.207031 C 259.804688 148.691406 263.433594 152.113281 266.980469 155.605469 C 269.820312 158.402344 271.496094 161.96875 271.445312 165.980469 C 271.394531 169.570312 270.15625 173.339844 267.667969 175.988281 C 266.425781 177.316406 265.027344 178.613281 263.71875 179.878906 L 254.511719 188.753906 L 217.066406 225.417969 C 213.625 228.808594 210.496094 230.238281 205.648438 230.320312 C 199.492188 230.488281 195.585938 226.511719 191.523438 222.457031 C 186.816406 217.765625 181.679688 213.25 177.011719 208.496094 C 174.105469 211.347656 170.90625 213.957031 168.019531 216.890625 C 166.007812 218.941406 162.929688 220.785156 160.503906 217.875 C 157.253906 213.984375 162.046875 210.652344 164.65625 208.261719 C 166.546875 206.53125 168.714844 204.304688 170.828125 202.679688 C 164.910156 196.738281 158.332031 190.941406 152.382812 185.023438 C 150.113281 182.769531 142.660156 176.085938 141.347656 173.601562 C 131.375 173.582031 123.207031 173.027344 114.234375 178.515625 C 105.996094 183.558594 100.707031 190.566406 98.410156 199.917969 C 96.921875 207.179688 97.738281 214.511719 101.1875 221.105469 C 104.703125 227.746094 110.402344 232.96875 117.320312 235.898438 C 119.425781 236.800781 121.703125 237.457031 123.894531 238.144531 C 123.867188 235.539062 124.019531 233.507812 124.902344 231.019531 C 128.460938 220.976562 139.71875 215.785156 149.671875 219.46875 C 154.472656 221.253906 158.371094 224.859375 160.527344 229.5 C 162.566406 233.988281 162.707031 239.804688 160.929688 244.398438 C 159.046875 249.15625 155.359375 252.976562 150.671875 255.03125 C 145.96875 257.09375 140.632812 257.171875 135.871094 255.25 C 132.167969 253.796875 128.097656 250.621094 126.480469 246.921875 C 124.039062 246.539062 121.679688 246.308594 119.277344 245.65625 C 111.363281 243.503906 103.976562 238.699219 98.609375 232.527344 C 91.425781 224.28125 88.339844 214.105469 89.175781 203.246094 C 90.09375 192.695312 95.105469 182.921875 103.136719 176.015625 C 111.691406 168.6875 120.960938 165.324219 132.222656 165.167969 C 133.882812 165.144531 135.671875 165.082031 137.324219 165.210938 C 136.179688 160.019531 137.046875 154.582031 140.636719 150.484375 C 144.101562 146.527344 148.039062 142.8125 151.773438 139.089844 L 171.835938 119.070312 L 183.992188 106.859375 C 188.722656 102.097656 191.957031 97.640625 199.023438 96.886719 Z M 146.777344 165.28125 C 160.042969 164.988281 173.898438 165.210938 187.234375 165.207031 L 199.09375 165.1875 C 204.585938 165.164062 211.679688 164.40625 212 172.335938 C 212.160156 176.273438 208.8125 178.757812 206.191406 181.238281 L 183.222656 202.671875 C 185.277344 204.335938 189.117188 208.152344 191.054688 210.078125 C 193.496094 212.371094 195.910156 214.691406 198.300781 217.035156 C 200.457031 219.128906 202.605469 221.921875 205.894531 221.765625 C 207.019531 221.710938 208.394531 221.441406 209.332031 220.734375 C 211.535156 218.890625 213.59375 216.675781 215.667969 214.667969 L 231.144531 199.488281 L 251.707031 179.476562 L 257.847656 173.503906 C 260.105469 171.316406 262.980469 169.324219 262.6875 165.808594 C 262.488281 163.453125 261.441406 162.242188 259.789062 160.707031 C 258.160156 159.199219 256.511719 157.675781 254.929688 156.121094 L 237.621094 139.253906 L 214.355469 116.414062 C 211.136719 113.28125 208.011719 110.035156 204.722656 106.980469 C 203.789062 106.113281 201.925781 105.277344 200.625 105.378906 C 195.855469 105.777344 195.144531 108.03125 191.949219 111.183594 L 178.246094 124.890625 L 157.488281 145.609375 L 150.792969 152.335938 C 146.726562 156.421875 143.3125 159.101562 146.777344 165.28125 Z M 177.167969 196.730469 C 180.980469 192.914062 186.105469 188.214844 190.121094 184.609375 C 193.914062 181.09375 198.140625 177.011719 202.023438 173.65625 C 185.707031 173.597656 169.152344 173.433594 152.84375 173.601562 C 155.382812 175.738281 158.007812 178.332031 160.375 180.695312 C 165.820312 186.136719 171.78125 191.261719 177.167969 196.730469 Z M 177.167969 196.730469 " fill-opacity="1" fill-rule="nonzero"/><path fill="#171e20" d="M 257.492188 96.804688 C 265.050781 96.058594 271.789062 101.578125 272.542969 109.136719 C 273.300781 116.695312 267.789062 123.4375 260.234375 124.203125 C 252.660156 124.96875 245.902344 119.449219 245.148438 111.875 C 244.390625 104.304688 249.917969 97.554688 257.492188 96.804688 Z M 257.492188 96.804688 " fill-opacity="1" fill-rule="nonzero"/></svg>