<svg xmlns="http://www.w3.org/2000/svg" xmlns:xlink="http://www.w3.org/1999/xlink" width="500" zoomAndPan="magnify" viewBox="0 0 375 374.999991" height="500" preserveAspectRatio="xMidYMid meet" version="1.0"><defs><clipPath id="3536bdba89"><path d="M 37.5 37.5 L 337.5 37.5 L 337.5 337.5 L 37.5 337.5 Z M 37.5 37.5 " clip-rule="nonzero"/></clipPath><clipPath id="ba5a88b7ef"><path d="M 61.5 37.5 L 313.5 37.5 C 319.863281 37.5 325.96875 40.027344 330.46875 44.53125 C 334.972656 49.03125 337.5 55.136719 337.5 61.5 L 337.5 313.5 C 337.5 319.863281 334.972656 325.96875 330.46875 330.46875 C 325.96875 334.972656 319.863281 337.5 313.5 337.5 L 61.5 337.5 C 55.136719 337.5 49.03125 334.972656 44.53125 330.46875 C 40.027344 325.96875 37.5 319.863281 37.5 313.5 L 37.5 61.5 C 37.5 55.136719 40.027344 49.03125 44.53125 44.53125 C 49.03125 40.027344 55.136719 37.5 61.5 37.5 Z M 61.5 37.5 " clip-rule="nonzero"/></clipPath><clipPath id="1a47109d5b"><path d="M 0.5 0.5 L 300.5 0.5 L 300.5 300.5 L 0.5 300.5 Z M 0.5 0.5 " clip-rule="nonzero"/></clipPath><clipPath id="51b6532f9d"><path d="M 24.5 0.5 L 276.5 0.5 C 282.863281 0.5 288.96875 3.027344 293.46875 7.53125 C 297.972656 12.03125 300.5 18.136719 300.5 24.5 L 300.5 276.5 C 300.5 282.863281 297.972656 288.96875 293.46875 293.46875 C 288.96875 297.972656 282.863281 300.5 276.5 300.5 L 24.5 300.5 C 18.136719 300.5 12.03125 297.972656 7.53125 293.46875 C 3.027344 288.96875 0.5 282.863281 0.5 276.5 L 0.5 24.5 C 0.5 18.136719 3.027344 12.03125 7.53125 7.53125 C 12.03125 3.027344 18.136719 0.5 24.5 0.5 Z M 24.5 0.5 " clip-rule="nonzero"/></clipPath><clipPath id="ef7f52f229"><rect x="0" width="301" y="0" height="301"/></clipPath></defs><g clip-path="url(#3536bdba89)"><g clip-path="url(#ba5a88b7ef)"><g transform="matrix(1, 0, 0, 1, 37, 37)"><g clip-path="url(#ef7f52f229)"><g clip-path="url(#1a47109d5b)"><g clip-path="url(#51b6532f9d)"><path fill="#5cecff" d="M 0.5 0.5 L 300.5 0.5 L 300.5 300.5 L 0.5 300.5 Z M 0.5 0.5 " fill-opacity="1" fill-rule="nonzero"/></g></g></g></g></g></g><path fill="#161e25" d="M 186.25 92.742188 C 189.335938 92.644531 189.675781 93.109375 192.269531 94.609375 C 202.347656 100.429688 213.957031 104.648438 225.21875 107.617188 C 227.160156 108.125 229.117188 108.59375 231.082031 109.019531 C 232.285156 109.28125 233.59375 109.503906 234.765625 109.855469 C 238.175781 110.878906 237.800781 114.941406 237.703125 117.726562 C 237.226562 131.261719 235.664062 145.773438 230.855469 158.507812 C 224.972656 174.230469 214.039062 187.550781 199.765625 196.386719 C 195.898438 198.777344 192.996094 200.144531 188.871094 202.007812 C 185.132812 202.105469 183.378906 200.949219 180.070312 199.191406 C 161.984375 189.703125 148.457031 173.359375 142.515625 153.816406 C 139.015625 142.3125 137.621094 131.355469 137.148438 119.53125 C 136.226562 108.523438 139.183594 110.28125 147.714844 108.113281 C 159.117188 105.21875 170.855469 101.027344 181.261719 95.457031 C 182.660156 94.707031 184.816406 93.164062 186.25 92.742188 Z M 144.222656 115.925781 C 144.101562 146.953125 153.746094 176.75 182.101562 192.308594 C 183.855469 193.273438 185.726562 194.082031 187.449219 195.039062 C 205.355469 186.449219 218.023438 173.460938 224.640625 154.519531 C 228.785156 142.648438 230.707031 128.523438 230.601562 115.957031 C 218.382812 113.464844 208.664062 110.09375 197.363281 105.152344 C 195.410156 104.304688 193.503906 103.355469 191.652344 102.3125 C 190.835938 101.863281 188.023438 100.21875 187.414062 100.03125 C 177.140625 106.328125 164.035156 110.925781 152.457031 114.027344 C 150.296875 114.609375 146.28125 115.6875 144.222656 115.925781 Z M 144.222656 115.925781 " fill-opacity="1" fill-rule="nonzero"/><path fill="#161e25" d="M 206.347656 124.882812 C 206.59375 124.84375 206.839844 124.8125 207.089844 124.789062 C 208.617188 124.640625 210.132812 125.128906 211.285156 126.140625 C 213.15625 127.792969 214.011719 131.128906 212.785156 133.421875 C 212.003906 134.882812 210.332031 136.652344 209.25 137.96875 C 207.046875 140.703125 204.828125 143.425781 202.59375 146.140625 L 193.414062 157.464844 C 190.355469 161.242188 186.597656 168.09375 180.644531 164.230469 C 178.78125 163.023438 177.128906 160.878906 175.53125 159.320312 C 174.160156 157.980469 172.808594 156.480469 171.46875 155.082031 C 169.648438 153.113281 167.019531 150.910156 165.582031 148.707031 C 164.328125 146.785156 164.8125 143.484375 166.425781 141.75 C 167.507812 140.585938 169.023438 139.921875 170.613281 139.914062 C 171.753906 139.90625 172.875 140.226562 173.839844 140.835938 C 175.160156 141.667969 177.363281 144.136719 178.566406 145.367188 C 180.230469 147.058594 181.910156 148.730469 183.605469 150.390625 C 188.410156 144.386719 193.269531 138.429688 198.183594 132.515625 C 199.835938 130.496094 201.441406 128.089844 203.242188 126.238281 C 203.917969 125.546875 205.378906 125.082031 206.347656 124.882812 Z M 206.347656 124.882812 " fill-opacity="1" fill-rule="nonzero"/><path fill="#161e25" d="M 265.851562 143.457031 C 269.808594 143.191406 273.015625 144.230469 275.367188 147.597656 C 276.054688 148.574219 276.558594 149.667969 276.859375 150.824219 C 277.25 152.28125 277.519531 154.933594 277.707031 156.523438 C 278.714844 165.027344 278.871094 173.792969 278.703125 182.34375 C 278.546875 185.015625 278.222656 187.734375 277.824219 190.367188 C 276.402344 199.730469 272.507812 206.746094 266.523438 213.929688 C 257.226562 225.085938 246.382812 233.855469 234.542969 242.125 C 234.445312 245.359375 234.550781 248.644531 234.558594 251.894531 C 234.648438 254.210938 233.625 256.699219 230.910156 256.5 C 227.066406 256.214844 227.609375 252.210938 227.628906 249.445312 C 227.675781 248.335938 227.609375 247.203125 227.667969 246.09375 C 227.800781 243.699219 227.175781 240.726562 228.5625 238.601562 C 229.699219 236.863281 232.132812 235.484375 233.832031 234.265625 C 235.300781 233.203125 236.746094 232.113281 238.175781 230.996094 C 249.746094 222.003906 265.976562 208.300781 270.035156 193.703125 C 271.035156 190.109375 271.539062 186.425781 271.800781 182.714844 C 272.152344 177.6875 271.832031 155.015625 269.859375 151.746094 C 269.179688 150.617188 268.378906 150.296875 267.144531 149.996094 C 263.394531 150.839844 263.375 154.054688 262.671875 157.328125 C 260.777344 165.941406 259.65625 174.710938 259.332031 183.523438 C 259.292969 184.75 259.472656 185.789062 259.550781 186.992188 C 259.863281 191.957031 257.253906 195.054688 254.269531 198.554688 C 251.742188 201.324219 244.230469 210.203125 241.589844 211.679688 C 241.050781 211.984375 240.34375 212.035156 239.734375 212.121094 C 238.652344 211.664062 237.632812 211.054688 237.085938 209.960938 C 236.625 209.039062 236.699219 207.867188 237.160156 206.957031 C 237.902344 205.496094 239.609375 204.164062 240.765625 202.992188 C 243.53125 200.191406 251.519531 192.402344 252.539062 189.132812 C 252.90625 187.957031 252.921875 186.515625 252.328125 185.410156 C 251.695312 184.226562 250.355469 183.347656 249.082031 183.003906 C 247.589844 182.601562 246.027344 183.183594 244.777344 183.988281 C 242.953125 185.15625 241.402344 187.054688 239.90625 188.617188 C 237.128906 191.519531 234.390625 194.546875 231.230469 197.046875 C 228.316406 199.351562 225.0625 200.792969 221.835938 202.554688 C 211.992188 207.921875 203.414062 216.1875 201.785156 227.792969 C 201.375 230.707031 201.425781 233.640625 201.421875 236.574219 L 201.40625 246.347656 C 201.40625 248.019531 201.691406 253.179688 201.15625 254.589844 C 200.921875 255.199219 200.132812 255.832031 199.5625 256.105469 C 198.773438 256.484375 197.640625 256.632812 196.808594 256.316406 C 195.878906 255.960938 195.15625 255.167969 194.785156 254.253906 C 194.226562 252.875 194.480469 234.121094 194.59375 231.402344 C 194.6875 229.597656 194.867188 227.796875 195.128906 226.007812 C 196.84375 213.585938 206.335938 203.199219 217.023438 197.417969 C 220.914062 195.3125 224.328125 193.644531 227.859375 190.847656 C 233.148438 186.664062 236.941406 180.105469 243.015625 177.097656 C 246.28125 175.589844 249.710938 175.890625 252.96875 177.179688 C 252.871094 172.027344 255.695312 151.933594 258.402344 148.085938 C 260.335938 145.335938 262.570312 144.039062 265.851562 143.457031 Z M 265.851562 143.457031 " fill-opacity="1" fill-rule="nonzero"/><path fill="#161e25" d="M 106.519531 143.449219 C 110.976562 142.726562 115.90625 145.683594 117.445312 149.890625 C 118.367188 152.398438 118.886719 155.007812 119.382812 157.628906 C 120.648438 164.074219 121.488281 170.59375 121.898438 177.152344 C 126.117188 175.421875 130.703125 176.011719 134.433594 178.589844 C 136.609375 180.085938 138.414062 182.101562 140.199219 184.035156 C 143.789062 187.917969 147.421875 191.746094 152.097656 194.347656 C 153.933594 195.367188 155.832031 196.304688 157.679688 197.316406 C 161.28125 199.25 164.644531 201.597656 167.707031 204.308594 C 169.113281 205.566406 170.433594 206.925781 171.648438 208.371094 C 176.816406 214.480469 179.867188 222.097656 180.355469 230.085938 C 180.574219 233.488281 180.363281 238.6875 180.359375 242.261719 C 180.367188 244.539062 180.390625 246.820312 180.4375 249.101562 C 180.484375 251.785156 180.992188 254.289062 178.746094 256.183594 C 172.410156 257.460938 173.59375 252.007812 173.59375 247.628906 L 173.597656 236.992188 C 173.605469 233.421875 173.75 229.835938 173.042969 226.320312 C 172.066406 221.058594 169.433594 216.753906 166.207031 212.671875 C 160.148438 205.011719 151.382812 202.496094 143.820312 197.042969 C 140.417969 194.59375 137.164062 190.390625 134.019531 187.527344 C 132.816406 186.433594 131.722656 185.027344 130.371094 184.066406 C 128.308594 182.476562 125.46875 182.371094 123.554688 184.238281 C 122.695312 185.074219 122.207031 186.21875 122.199219 187.417969 C 122.160156 190.394531 125.382812 193.601562 127.289062 195.699219 C 130.273438 198.992188 133.390625 202.230469 136.523438 205.382812 C 137.527344 206.492188 138.164062 207.039062 138.191406 208.601562 C 138.238281 211.246094 135.210938 212.980469 133.039062 211.496094 C 131.949219 210.753906 130.550781 209.179688 129.519531 208.117188 C 126.882812 205.40625 124.324219 202.628906 121.835938 199.78125 C 119.867188 197.25 117.304688 195.023438 116.160156 191.929688 C 114.933594 188.609375 115.605469 185.421875 115.394531 181.742188 C 115.015625 174.125 114.082031 166.542969 112.601562 159.058594 C 112.175781 156.847656 111.734375 154.375 110.957031 152.261719 C 110.460938 150.910156 109.519531 150.574219 108.246094 150.027344 C 106.648438 150.265625 104.792969 151.042969 104.488281 152.855469 C 103.429688 159.191406 103.140625 165.929688 102.929688 172.355469 C 102.722656 178.785156 102.847656 185.640625 104.304688 191.921875 C 107.625 206.480469 122.671875 219.695312 133.9375 228.824219 C 135.871094 230.398438 137.851562 231.910156 139.882812 233.351562 C 141.765625 234.683594 143.859375 235.980469 145.523438 237.5625 C 147.644531 239.578125 147.230469 242.398438 147.234375 245.046875 C 147.25 248.066406 147.242188 251.085938 147.207031 254.105469 C 146.519531 255.285156 145.839844 256.289062 144.332031 256.402344 C 142.679688 256.5625 140.847656 255.523438 140.621094 253.773438 C 140.453125 252.441406 140.53125 250.847656 140.527344 249.484375 C 140.527344 247.039062 140.507812 244.59375 140.472656 242.148438 C 139.640625 241.421875 137.578125 240.082031 136.589844 239.378906 C 134.429688 237.835938 132.296875 236.246094 130.199219 234.613281 C 120.242188 226.8125 106.871094 214.410156 101.046875 203.023438 C 99.320312 199.597656 98.066406 195.953125 97.3125 192.191406 C 96.671875 188.964844 96.277344 185.6875 96.136719 182.398438 C 95.761719 174.523438 96.273438 166.4375 96.929688 158.59375 C 97.554688 151.171875 97.945312 145.128906 106.519531 143.449219 Z M 106.519531 143.449219 " fill-opacity="1" fill-rule="nonzero"/></svg>