<svg xmlns="http://www.w3.org/2000/svg" xmlns:xlink="http://www.w3.org/1999/xlink" width="500" zoomAndPan="magnify" viewBox="0 0 375 374.999991" height="500" preserveAspectRatio="xMidYMid meet" version="1.0"><defs><clipPath id="eb2555f29a"><path d="M 37.5 37.5 L 337.5 37.5 L 337.5 337.5 L 37.5 337.5 Z M 37.5 37.5 " clip-rule="nonzero"/></clipPath><clipPath id="0ccc4268c2"><path d="M 61.5 37.5 L 313.5 37.5 C 319.863281 37.5 325.96875 40.027344 330.46875 44.53125 C 334.972656 49.03125 337.5 55.136719 337.5 61.5 L 337.5 313.5 C 337.5 319.863281 334.972656 325.96875 330.46875 330.46875 C 325.96875 334.972656 319.863281 337.5 313.5 337.5 L 61.5 337.5 C 55.136719 337.5 49.03125 334.972656 44.53125 330.46875 C 40.027344 325.96875 37.5 319.863281 37.5 313.5 L 37.5 61.5 C 37.5 55.136719 40.027344 49.03125 44.53125 44.53125 C 49.03125 40.027344 55.136719 37.5 61.5 37.5 Z M 61.5 37.5 " clip-rule="nonzero"/></clipPath><clipPath id="0944569178"><path d="M 0.5 0.5 L 300.5 0.5 L 300.5 300.5 L 0.5 300.5 Z M 0.5 0.5 " clip-rule="nonzero"/></clipPath><clipPath id="8f0fd1301b"><path d="M 24.5 0.5 L 276.5 0.5 C 282.863281 0.5 288.96875 3.027344 293.46875 7.53125 C 297.972656 12.03125 300.5 18.136719 300.5 24.5 L 300.5 276.5 C 300.5 282.863281 297.972656 288.96875 293.46875 293.46875 C 288.96875 297.972656 282.863281 300.5 276.5 300.5 L 24.5 300.5 C 18.136719 300.5 12.03125 297.972656 7.53125 293.46875 C 3.027344 288.96875 0.5 282.863281 0.5 276.5 L 0.5 24.5 C 0.5 18.136719 3.027344 12.03125 7.53125 7.53125 C 12.03125 3.027344 18.136719 0.5 24.5 0.5 Z M 24.5 0.5 " clip-rule="nonzero"/></clipPath><clipPath id="d8082f1878"><rect x="0" width="301" y="0" height="301"/></clipPath></defs><g clip-path="url(#eb2555f29a)"><g clip-path="url(#0ccc4268c2)"><g transform="matrix(1, 0, 0, 1, 37, 37)"><g clip-path="url(#d8082f1878)"><g clip-path="url(#0944569178)"><g clip-path="url(#8f0fd1301b)"><path fill="#5cecff" d="M 0.5 0.5 L 300.5 0.5 L 300.5 300.5 L 0.5 300.5 Z M 0.5 0.5 " fill-opacity="1" fill-rule="nonzero"/></g></g></g></g></g></g><path fill="#1a1a1b" d="M 167.789062 120.5 C 192.914062 119.742188 213.875 139.53125 214.566406 164.65625 C 215.257812 189.78125 195.414062 210.691406 170.289062 211.316406 C 145.253906 211.941406 124.4375 192.1875 123.75 167.152344 C 123.0625 142.121094 142.761719 121.253906 167.789062 120.5 Z M 172.632812 203.136719 C 193.171875 201.230469 208.289062 183.046875 206.414062 162.503906 C 204.535156 141.960938 186.378906 126.820312 165.835938 128.660156 C 145.242188 130.507812 130.054688 148.714844 131.933594 169.304688 C 133.816406 189.894531 152.046875 205.050781 172.632812 203.136719 Z M 172.632812 203.136719 " fill-opacity="1" fill-rule="nonzero"/><path fill="#1a1a1b" d="M 210.839844 198.871094 C 211.59375 198.960938 215.242188 202.746094 216.050781 203.542969 C 219.121094 206.582031 222.207031 209.605469 225.3125 212.609375 L 261.449219 247.535156 C 262.859375 248.886719 274.144531 259.644531 274.242188 260.285156 C 274.351562 261.046875 273.847656 261.878906 273.402344 262.457031 C 272.644531 263.429688 269.246094 267.085938 268.265625 267.699219 C 268.027344 267.84375 267.722656 267.882812 267.453125 267.917969 C 266.28125 267.636719 260.121094 261.242188 258.882812 260.023438 L 245.59375 247.023438 C 231.503906 233.523438 217.511719 219.925781 203.617188 206.222656 C 205.855469 204.230469 208.90625 201.164062 210.839844 198.871094 Z M 210.839844 198.871094 " fill-opacity="1" fill-rule="nonzero"/><path fill="#1a1a1b" d="M 108.128906 134.855469 C 109.6875 135.503906 120.132812 140.617188 120.949219 141.355469 C 120.878906 142.5 118.8125 146.953125 118.265625 148.277344 C 118.179688 148.484375 118.011719 148.4375 117.71875 148.476562 C 113.285156 147.121094 108.726562 145.546875 104.328125 144.0625 C 104.984375 141.613281 106.691406 136.976562 108.128906 134.855469 Z M 108.128906 134.855469 " fill-opacity="1" fill-rule="nonzero"/><path fill="#1a1a1b" d="M 225.683594 128.417969 C 227.1875 128.667969 230.351562 135.226562 230.992188 136.796875 C 227.839844 138.625 222.492188 140.972656 219.074219 142.53125 C 218.578125 142.789062 218.425781 142.917969 217.863281 142.917969 C 217.425781 142.515625 214.445312 137.160156 213.886719 136.230469 Z M 225.683594 128.417969 " fill-opacity="1" fill-rule="nonzero"/><path fill="#1a1a1b" d="M 117.34375 180.65625 L 117.457031 180.679688 C 117.84375 181.09375 119.980469 186.953125 120.347656 187.921875 C 118.960938 188.632812 107.933594 193.933594 107.191406 193.859375 C 106.324219 192.65625 103.917969 186.222656 103.613281 184.71875 C 108.027344 183.367188 112.890625 181.734375 117.34375 180.65625 Z M 117.34375 180.65625 " fill-opacity="1" fill-rule="nonzero"/><path fill="#1a1a1b" d="M 101.171875 159.179688 C 103.015625 159.261719 105.382812 159.609375 107.292969 159.777344 C 109.949219 160.011719 113.019531 160.15625 115.617188 160.582031 C 115.601562 161.546875 115.527344 167.855469 115.367188 168.246094 L 114.976562 168.300781 C 113.359375 168.566406 102.238281 169.296875 101.058594 169.007812 C 100.5 168.066406 100.742188 160.308594 101.171875 159.179688 Z M 101.171875 159.179688 " fill-opacity="1" fill-rule="nonzero"/><path fill="#1a1a1b" d="M 126.753906 198.625 C 128.316406 200.089844 130.40625 203.089844 132.191406 204.34375 C 129.621094 207.078125 125.066406 211.820312 122.140625 214.527344 C 122.03125 214.539062 121.925781 214.550781 121.820312 214.5625 L 121.339844 214.179688 C 120.15625 212.980469 115.820312 208.78125 115.578125 207.453125 C 116.304688 206.210938 125.054688 199.835938 126.753906 198.625 Z M 126.753906 198.625 " fill-opacity="1" fill-rule="nonzero"/><path fill="#1a1a1b" d="M 235.578125 151.796875 C 236.742188 151.964844 237.328125 160.375 237.296875 161.699219 C 232.757812 161.964844 228.03125 162.3125 223.5 162.320312 C 223.128906 162.324219 223.242188 162.332031 222.890625 162.242188 C 222.316406 160.300781 222.296875 156.859375 221.726562 154.746094 C 225.847656 153.761719 231.4375 152.546875 235.578125 151.796875 Z M 235.578125 151.796875 " fill-opacity="1" fill-rule="nonzero"/><path fill="#1a1a1b" d="M 222.316406 174.777344 C 226.363281 175.742188 232.746094 176.257812 236.546875 177.34375 C 236.429688 179.667969 235.0625 184.316406 234.21875 186.582031 C 234.070312 186.847656 234.160156 186.726562 233.867188 186.902344 C 232.261719 186.496094 229.707031 185.523438 228.0625 184.960938 C 225.652344 184.136719 222.703125 183.226562 220.386719 182.261719 C 221.027344 179.738281 221.730469 177.335938 222.316406 174.777344 Z M 222.316406 174.777344 " fill-opacity="1" fill-rule="nonzero"/><path fill="#1a1a1b" d="M 142.117188 212.210938 C 142.925781 212.480469 147.828125 215.058594 148.988281 215.609375 C 147.425781 219.804688 145.265625 224.652344 143.488281 228.828125 C 142.980469 228.6875 142.542969 228.503906 142.054688 228.316406 C 140.332031 227.554688 135.796875 225.269531 134.433594 224.277344 C 135.183594 222.851562 136.386719 221.054688 137.246094 219.65625 C 138.796875 217.128906 140.34375 214.585938 142.117188 212.210938 Z M 142.117188 212.210938 " fill-opacity="1" fill-rule="nonzero"/><path fill="#1a1a1b" d="M 123.261719 115.242188 C 124.042969 115.324219 132.300781 124.726562 133.269531 125.800781 C 132.367188 126.652344 128.367188 130.914062 127.800781 131.175781 L 127.449219 130.988281 C 123.917969 128.140625 119.957031 125.023438 116.632812 121.996094 C 117.882812 120.417969 121.648438 116.304688 123.261719 115.242188 Z M 123.261719 115.242188 " fill-opacity="1" fill-rule="nonzero"/><path fill="#1a1a1b" d="M 208.472656 110.371094 C 209.753906 110.59375 215.382812 115.234375 215.796875 116.472656 C 215.152344 117.734375 208.054688 124.628906 206.640625 125.976562 L 205.851562 126.738281 C 204.210938 125.253906 201.757812 123.175781 199.941406 121.988281 C 202.332031 118.484375 205.765625 113.558594 208.472656 110.371094 Z M 208.472656 110.371094 " fill-opacity="1" fill-rule="nonzero"/><path fill="#1a1a1b" d="M 185.230469 99.738281 C 187.316406 99.902344 192.992188 101.625 194.726562 102.789062 C 193.480469 106.308594 191.339844 110.988281 189.839844 114.488281 C 189.632812 115.097656 189.492188 115.3125 189.164062 115.878906 C 186.992188 115.335938 184.144531 114.308594 181.902344 113.652344 C 182.953125 109.039062 184.148438 104.363281 185.230469 99.738281 Z M 185.230469 99.738281 " fill-opacity="1" fill-rule="nonzero"/><path fill="#1a1a1b" d="M 143.957031 102.242188 C 144.367188 102.21875 144.542969 102.234375 144.945312 102.261719 C 145.042969 102.335938 145.140625 102.414062 145.238281 102.488281 C 146.699219 106.347656 148.863281 111.832031 150.1875 115.546875 C 148.550781 116.0625 144.289062 118.359375 143.402344 118.539062 L 143.125 118.277344 C 140.839844 114.445312 138.199219 110.125 136.113281 106.226562 C 137.582031 104.851562 141.941406 103.074219 143.957031 102.242188 Z M 143.957031 102.242188 " fill-opacity="1" fill-rule="nonzero"/><path fill="#1a1a1b" d="M 161.042969 218.964844 C 162.859375 219.414062 166.601562 219.53125 168.570312 219.59375 C 168.328125 223.65625 168.488281 229.871094 168.585938 234.035156 C 167.769531 234.097656 166.910156 234.0625 166.089844 234.050781 C 164.25 233.835938 160.085938 233.921875 158.8125 233.039062 C 158.46875 231.652344 160.765625 221.585938 161.023438 219.144531 Z M 161.042969 218.964844 " fill-opacity="1" fill-rule="nonzero"/><path fill="#1a1a1b" d="M 163.109375 97.644531 C 165.335938 97.484375 167.570312 97.449219 169.800781 97.535156 L 169.894531 112.066406 C 168.625 112 167.785156 111.992188 166.515625 112.050781 C 165.15625 112.03125 163.738281 112.335938 162.242188 112.371094 C 161.546875 108.828125 160.398438 101.597656 160.117188 98.023438 C 161.140625 97.785156 162.066406 97.734375 163.109375 97.644531 Z M 163.109375 97.644531 " fill-opacity="1" fill-rule="nonzero"/></svg>