<svg xmlns="http://www.w3.org/2000/svg" xmlns:xlink="http://www.w3.org/1999/xlink" width="500" zoomAndPan="magnify" viewBox="0 0 375 374.999991" height="500" preserveAspectRatio="xMidYMid meet" version="1.0"><defs><clipPath id="b9271a6f2c"><path d="M 37.5 37.5 L 337.5 37.5 L 337.5 337.5 L 37.5 337.5 Z M 37.5 37.5 " clip-rule="nonzero"/></clipPath><clipPath id="49cd2c47c5"><path d="M 61.5 37.5 L 313.5 37.5 C 319.863281 37.5 325.96875 40.027344 330.46875 44.53125 C 334.972656 49.03125 337.5 55.136719 337.5 61.5 L 337.5 313.5 C 337.5 319.863281 334.972656 325.96875 330.46875 330.46875 C 325.96875 334.972656 319.863281 337.5 313.5 337.5 L 61.5 337.5 C 55.136719 337.5 49.03125 334.972656 44.53125 330.46875 C 40.027344 325.96875 37.5 319.863281 37.5 313.5 L 37.5 61.5 C 37.5 55.136719 40.027344 49.03125 44.53125 44.53125 C 49.03125 40.027344 55.136719 37.5 61.5 37.5 Z M 61.5 37.5 " clip-rule="nonzero"/></clipPath><clipPath id="3df8aeccab"><path d="M 0.5 0.5 L 300.5 0.5 L 300.5 300.5 L 0.5 300.5 Z M 0.5 0.5 " clip-rule="nonzero"/></clipPath><clipPath id="3a8c28a5c7"><path d="M 24.5 0.5 L 276.5 0.5 C 282.863281 0.5 288.96875 3.027344 293.46875 7.53125 C 297.972656 12.03125 300.5 18.136719 300.5 24.5 L 300.5 276.5 C 300.5 282.863281 297.972656 288.96875 293.46875 293.46875 C 288.96875 297.972656 282.863281 300.5 276.5 300.5 L 24.5 300.5 C 18.136719 300.5 12.03125 297.972656 7.53125 293.46875 C 3.027344 288.96875 0.5 282.863281 0.5 276.5 L 0.5 24.5 C 0.5 18.136719 3.027344 12.03125 7.53125 7.53125 C 12.03125 3.027344 18.136719 0.5 24.5 0.5 Z M 24.5 0.5 " clip-rule="nonzero"/></clipPath><clipPath id="b872fda472"><rect x="0" width="301" y="0" height="301"/></clipPath></defs><g clip-path="url(#b9271a6f2c)"><g clip-path="url(#49cd2c47c5)"><g transform="matrix(1, 0, 0, 1, 37, 37)"><g clip-path="url(#b872fda472)"><g clip-path="url(#3df8aeccab)"><g clip-path="url(#3a8c28a5c7)"><path fill="#ffc6bc" d="M 0.5 0.5 L 300.5 0.5 L 300.5 300.5 L 0.5 300.5 Z M 0.5 0.5 " fill-opacity="1" fill-rule="nonzero"/></g></g></g></g></g></g><path fill="#161616" d="M 183.570312 118.839844 C 217.316406 116.808594 246.316406 142.519531 248.34375 176.265625 C 250.371094 210.011719 224.652344 239.007812 190.90625 241.027344 C 157.171875 243.046875 128.183594 217.339844 126.15625 183.601562 C 124.132812 149.867188 149.832031 120.875 183.570312 118.839844 Z M 189.734375 233.789062 C 219.554688 232.40625 242.585938 207.082031 241.136719 177.265625 C 239.6875 147.449219 214.308594 124.476562 184.496094 125.992188 C 154.78125 127.507812 131.898438 152.785156 133.34375 182.503906 C 134.789062 212.222656 160.011719 235.164062 189.734375 233.789062 Z M 189.734375 233.789062 " fill-opacity="1" fill-rule="nonzero"/><path fill="#161616" d="M 185.585938 137.554688 C 188.773438 137.25 190.203125 137.34375 191.808594 140.210938 C 191.761719 142.699219 191.769531 145.183594 191.820312 147.671875 C 197.992188 148.613281 202.59375 150.703125 207.457031 155.046875 C 211.359375 158.53125 211.703125 162.886719 205.441406 164.210938 C 203.046875 164.722656 201.515625 162.015625 199.84375 160.554688 C 195.917969 157.128906 190.453125 156.253906 185.390625 156.492188 C 180.613281 156.695312 172.671875 158.914062 173.007812 165.078125 C 173.199219 168.632812 177.109375 170.71875 180.121094 171.839844 C 191.109375 175.941406 210.097656 177.207031 211.71875 192.070312 C 212.996094 204.082031 202.46875 210.734375 191.753906 211.746094 C 191.890625 213.683594 192.234375 219.714844 190.960938 221.003906 C 189.945312 222.035156 189.292969 222.15625 187.9375 222.242188 L 187.527344 222.257812 C 181.199219 222.421875 182.75 216.335938 182.765625 211.714844 C 178.304688 211.117188 173.816406 209.851562 169.992188 207.402344 C 167.671875 205.832031 163.832031 203.023438 163.125 200.207031 C 162.496094 197.695312 164.949219 195.253906 167.394531 194.941406 C 171.027344 194.480469 171.390625 196.835938 173.71875 198.679688 C 178.375 202.359375 184.851562 203.539062 190.640625 202.785156 C 194.332031 202.289062 198.699219 201.152344 201.019531 197.980469 C 202.023438 196.613281 202.574219 194.757812 202.289062 193.078125 C 201.027344 185.621094 187.027344 184.082031 180.953125 181.964844 C 176.984375 180.582031 173.542969 179.753906 169.996094 177.167969 C 166.636719 174.730469 164.410156 171.6875 163.757812 167.550781 C 161.789062 155.105469 172.042969 149.382812 182.882812 147.753906 C 182.773438 146.453125 182.765625 145.136719 182.738281 143.835938 C 182.683594 140.707031 182.390625 138.902344 185.585938 137.554688 Z M 185.585938 137.554688 " fill-opacity="1" fill-rule="nonzero"/><path fill="#161616" d="M 268.101562 147.652344 C 268.324219 147.621094 268.394531 147.667969 268.632812 147.71875 C 269.886719 148.753906 272.023438 156.402344 272.347656 158.246094 C 271.6875 158.546875 271.074219 158.707031 270.371094 158.875 C 265.925781 159.945312 261.496094 161.25 257.035156 162.226562 C 256.597656 162.332031 256.207031 162.476562 255.78125 162.371094 C 254.570312 159.917969 254.078125 156.601562 252.808594 154.058594 C 257.832031 152.113281 263.054688 149.726562 268.101562 147.652344 Z M 268.101562 147.652344 " fill-opacity="1" fill-rule="nonzero"/><path fill="#161616" d="M 254.382812 124.128906 C 255.953125 125.015625 260.402344 131.3125 261.277344 133.144531 C 257.136719 135.988281 252.152344 138.964844 247.871094 141.667969 L 246.804688 142.277344 C 245.367188 140.542969 243.027344 137.085938 241.539062 135.082031 C 244.035156 132.871094 246.558594 130.6875 249.101562 128.53125 C 250.71875 127.140625 252.691406 125.339844 254.382812 124.128906 Z M 254.382812 124.128906 " fill-opacity="1" fill-rule="nonzero"/><path fill="#161616" d="M 105.980469 147.574219 L 107.847656 148.3125 C 109.324219 148.902344 121.066406 153.71875 121.289062 154.234375 C 121.109375 155.332031 119.171875 161.003906 118.664062 162.34375 C 118.613281 162.480469 118.335938 162.398438 118.132812 162.378906 C 115.785156 161.964844 112.78125 161.105469 110.414062 160.496094 C 107.847656 159.839844 104.753906 159.117188 102.257812 158.316406 C 102.347656 156.171875 104.628906 149.109375 105.980469 147.574219 Z M 105.980469 147.574219 " fill-opacity="1" fill-rule="nonzero"/><path fill="#161616" d="M 118.207031 197.769531 C 118.339844 197.765625 118.507812 197.808594 118.644531 197.832031 C 119.09375 198.589844 121.152344 204.910156 121.570312 206.144531 C 119.027344 207.324219 115.660156 208.523438 113.03125 209.652344 C 111.5625 210.285156 107.148438 212.175781 105.832031 212.421875 C 104.738281 211.648438 102.296875 203.289062 102.171875 201.792969 C 103.722656 201.253906 106.113281 200.769531 107.777344 200.363281 C 111.265625 199.535156 114.738281 198.671875 118.207031 197.769531 Z M 118.207031 197.769531 " fill-opacity="1" fill-rule="nonzero"/><path fill="#161616" d="M 119.792969 124.25 C 120.910156 124.539062 131.441406 133.761719 132.855469 135.167969 C 132.148438 136.109375 128.046875 141.941406 127.550781 142.1875 L 127.039062 141.910156 C 125.234375 140.992188 122.359375 139.058594 120.613281 137.917969 C 118.160156 136.308594 115.625 134.804688 113.191406 133.21875 L 113.253906 133.101562 C 114.355469 131.015625 118.09375 125.828125 119.792969 124.25 Z M 119.792969 124.25 " fill-opacity="1" fill-rule="nonzero"/><path fill="#161616" d="M 246.777344 217.789062 C 247.417969 218.097656 248.160156 218.574219 248.773438 218.957031 C 251.699219 220.785156 254.582031 222.675781 257.539062 224.453125 C 258.738281 225.171875 260.300781 225.914062 261.175781 226.980469 C 260.890625 228.3125 256.695312 233.445312 255.609375 234.800781 C 255.152344 235.257812 254.980469 235.46875 254.402344 235.554688 C 253.265625 235.035156 250.203125 232.324219 249.144531 231.4375 C 246.605469 229.292969 244.050781 227.171875 241.480469 225.0625 C 243.191406 222.605469 245.011719 220.421875 246.777344 217.789062 Z M 246.777344 217.789062 " fill-opacity="1" fill-rule="nonzero"/><path fill="#161616" d="M 272.816406 174.453125 C 273.386719 174.429688 274.628906 174.3125 274.8125 174.75 C 275.421875 176.195312 275.5 184.667969 274.679688 185.511719 C 273.015625 185.949219 263.492188 185.007812 261.226562 184.878906 C 260.613281 184.777344 258.636719 184.703125 257.917969 184.660156 L 257.933594 175.679688 C 262.722656 175.320312 268.070312 174.929688 272.816406 174.453125 Z M 272.816406 174.453125 " fill-opacity="1" fill-rule="nonzero"/><path fill="#161616" d="M 127.675781 217.851562 C 127.925781 217.960938 132.476562 224.28125 132.996094 225.023438 C 131.359375 226.515625 128.707031 228.523438 127.003906 230.015625 C 125.90625 230.972656 121.210938 235.015625 120.207031 235.515625 C 119.691406 235.550781 119.652344 235.476562 119.195312 235.234375 C 118.183594 233.828125 113.320312 228.089844 113.433594 226.902344 C 114.394531 225.722656 125.667969 218.984375 127.675781 217.851562 Z M 127.675781 217.851562 " fill-opacity="1" fill-rule="nonzero"/><path fill="#161616" d="M 255.761719 197.699219 C 256.679688 197.992188 258.546875 198.375 259.550781 198.621094 L 267.285156 200.527344 C 267.9375 200.6875 272.226562 201.5625 272.164062 202.132812 C 271.824219 205.15625 270.226562 209.316406 269.105469 212.089844 C 268.953125 212.210938 268.78125 212.261719 268.59375 212.347656 C 267.410156 212.300781 254.652344 206.851562 252.980469 206.09375 C 254 203.324219 254.925781 200.527344 255.761719 197.699219 Z M 255.761719 197.699219 " fill-opacity="1" fill-rule="nonzero"/><path fill="#161616" d="M 161.472656 245.554688 L 169.816406 248.308594 C 169.273438 250.332031 166.269531 263.957031 165.457031 264.667969 C 164.835938 264.777344 164.410156 264.597656 163.792969 264.429688 C 160.988281 263.351562 157.859375 262.75 155.175781 261.273438 C 155.660156 259.144531 157.238281 255.476562 158.105469 253.417969 C 159.171875 250.882812 160.304688 248.007812 161.472656 245.554688 Z M 161.472656 245.554688 " fill-opacity="1" fill-rule="nonzero"/><path fill="#161616" d="M 99.65625 174.535156 C 100.570312 174.394531 104.519531 174.761719 105.570312 174.847656 C 109.210938 175.144531 112.855469 175.417969 116.5 175.667969 C 116.347656 177.335938 116.574219 183.886719 116.214844 184.546875 L 115.835938 184.640625 C 113.554688 184.808594 110.90625 184.964844 108.65625 185.132812 C 106.902344 185.261719 101.429688 185.835938 99.910156 185.542969 C 99.007812 184.792969 99.097656 175.679688 99.65625 174.535156 Z M 99.65625 174.535156 " fill-opacity="1" fill-rule="nonzero"/><path fill="#161616" d="M 142.519531 234.433594 C 144.046875 235.671875 148.453125 238.453125 149.367188 239.597656 C 149.300781 240.488281 141.558594 252.375 140.59375 253.902344 L 139.144531 253.082031 C 136.789062 251.574219 133.582031 249.148438 131.511719 247.273438 C 131.929688 246.609375 134.722656 243.304688 135.429688 242.527344 C 137.546875 240.203125 140.324219 236.476562 142.519531 234.433594 Z M 142.519531 234.433594 " fill-opacity="1" fill-rule="nonzero"/><path fill="#161616" d="M 139.976562 106.375 L 140.460938 106.417969 C 141.382812 106.953125 148.566406 118.609375 149.679688 120.390625 C 148.664062 121.117188 143.109375 125.359375 142.441406 125.515625 L 142.082031 125.246094 C 139.953125 122.667969 137.804688 120.105469 135.644531 117.554688 C 134.570312 116.308594 132.355469 113.894531 131.523438 112.621094 C 133.164062 110.972656 138.011719 107.695312 139.976562 106.375 Z M 139.976562 106.375 " fill-opacity="1" fill-rule="nonzero"/><path fill="#161616" d="M 231.882812 234.574219 C 232.757812 234.652344 241.9375 245.765625 243.023438 247.375 C 240.792969 249.347656 237.773438 251.511719 235.277344 253.113281 L 234 253.824219 C 233.484375 253.128906 232.90625 252.257812 232.453125 251.519531 C 229.972656 247.476562 227.417969 243.523438 224.820312 239.558594 C 227.304688 237.914062 229.476562 236.320312 231.882812 234.574219 Z M 231.882812 234.574219 " fill-opacity="1" fill-rule="nonzero"/><path fill="#161616" d="M 212.96875 245.636719 C 213.742188 246.464844 218.625 259.152344 219.605469 261.105469 C 217.140625 262.492188 213.878906 263.402344 211.15625 264.238281 C 210.433594 264.441406 209.828125 264.636719 209.097656 264.515625 C 208.988281 264.441406 208.878906 264.363281 208.769531 264.289062 C 207.5625 260.242188 205.625 252.066406 204.738281 248.371094 C 206.523438 247.597656 210.957031 246.296875 212.96875 245.636719 Z M 212.96875 245.636719 " fill-opacity="1" fill-rule="nonzero"/><path fill="#161616" d="M 208.863281 95.296875 C 210.453125 95.355469 218.289062 97.769531 219.222656 98.878906 C 219.195312 100.324219 214.304688 111.164062 213.519531 112.96875 C 213.375 113.378906 213.125 113.917969 212.949219 114.332031 C 210.804688 113.441406 206.929688 112.3125 204.621094 111.566406 C 205.304688 108.351562 206.34375 104.808594 207.121094 101.585938 C 207.449219 100.214844 208.371094 96.46875 208.863281 95.296875 Z M 208.863281 95.296875 " fill-opacity="1" fill-rule="nonzero"/><path fill="#161616" d="M 164.628906 95.398438 C 165.113281 95.335938 165.097656 95.316406 165.558594 95.441406 C 166.113281 96.015625 169.34375 109.71875 169.886719 111.636719 C 168.914062 111.929688 161.777344 114.3125 161.40625 114.261719 L 161.277344 113.996094 C 160.011719 110.878906 158.722656 107.769531 157.410156 104.671875 C 156.675781 102.914062 155.570312 100.445312 155.089844 98.652344 C 157.285156 97.574219 162.214844 96.074219 164.628906 95.398438 Z M 164.628906 95.398438 " fill-opacity="1" fill-rule="nonzero"/><path fill="#161616" d="M 233.855469 106.316406 C 235.832031 106.816406 241.355469 111.175781 242.964844 112.757812 C 239.578125 116.59375 236.273438 120.648438 232.871094 124.53125 C 232.648438 124.855469 232.230469 125.289062 231.953125 125.597656 C 230.398438 124.484375 226.1875 121.507812 224.898438 120.308594 C 227.621094 115.855469 230.933594 110.65625 233.855469 106.316406 Z M 233.855469 106.316406 " fill-opacity="1" fill-rule="nonzero"/><path fill="#161616" d="M 183.359375 92.375 C 185.359375 92.394531 191.132812 91.964844 192.542969 92.777344 C 192.859375 94.058594 191.75 109.015625 191.386719 109.460938 L 182.941406 109.480469 C 182.503906 104.40625 181.835938 97.609375 181.710938 92.6875 C 182.277344 92.535156 182.785156 92.464844 183.359375 92.375 Z M 183.359375 92.375 " fill-opacity="1" fill-rule="nonzero"/><path fill="#161616" d="M 182.960938 250.417969 C 184.855469 250.589844 189.625 250.476562 191.566406 250.382812 C 191.726562 252.578125 192.964844 265.773438 192.640625 267.058594 C 192.203125 267.402344 191.707031 267.363281 191.136719 267.402344 C 188.679688 267.660156 184.273438 267.570312 181.824219 267.28125 C 181.664062 265.742188 182 263.042969 182.117188 261.386719 C 182.375 257.742188 182.773438 254.070312 182.960938 250.417969 Z M 182.960938 250.417969 " fill-opacity="1" fill-rule="nonzero"/></svg>