<svg xmlns="http://www.w3.org/2000/svg" xmlns:xlink="http://www.w3.org/1999/xlink" width="500" zoomAndPan="magnify" viewBox="0 0 375 374.999991" height="500" preserveAspectRatio="xMidYMid meet" version="1.0"><defs><clipPath id="5ab7d36aa5"><path d="M 37.5 37.5 L 337.5 37.5 L 337.5 337.5 L 37.5 337.5 Z M 37.5 37.5 " clip-rule="nonzero"/></clipPath><clipPath id="fcab47da90"><path d="M 61.5 37.5 L 313.5 37.5 C 319.863281 37.5 325.96875 40.027344 330.46875 44.53125 C 334.972656 49.03125 337.5 55.136719 337.5 61.5 L 337.5 313.5 C 337.5 319.863281 334.972656 325.96875 330.46875 330.46875 C 325.96875 334.972656 319.863281 337.5 313.5 337.5 L 61.5 337.5 C 55.136719 337.5 49.03125 334.972656 44.53125 330.46875 C 40.027344 325.96875 37.5 319.863281 37.5 313.5 L 37.5 61.5 C 37.5 55.136719 40.027344 49.03125 44.53125 44.53125 C 49.03125 40.027344 55.136719 37.5 61.5 37.5 Z M 61.5 37.5 " clip-rule="nonzero"/></clipPath><clipPath id="0898a2b9e1"><path d="M 0.5 0.5 L 300.5 0.5 L 300.5 300.5 L 0.5 300.5 Z M 0.5 0.5 " clip-rule="nonzero"/></clipPath><clipPath id="6f1fc26465"><path d="M 24.5 0.5 L 276.5 0.5 C 282.863281 0.5 288.96875 3.027344 293.46875 7.53125 C 297.972656 12.03125 300.5 18.136719 300.5 24.5 L 300.5 276.5 C 300.5 282.863281 297.972656 288.96875 293.46875 293.46875 C 288.96875 297.972656 282.863281 300.5 276.5 300.5 L 24.5 300.5 C 18.136719 300.5 12.03125 297.972656 7.53125 293.46875 C 3.027344 288.96875 0.5 282.863281 0.5 276.5 L 0.5 24.5 C 0.5 18.136719 3.027344 12.03125 7.53125 7.53125 C 12.03125 3.027344 18.136719 0.5 24.5 0.5 Z M 24.5 0.5 " clip-rule="nonzero"/></clipPath><clipPath id="e41c665158"><rect x="0" width="301" y="0" height="301"/></clipPath></defs><g clip-path="url(#5ab7d36aa5)"><g clip-path="url(#fcab47da90)"><g transform="matrix(1, 0, 0, 1, 37, 37)"><g clip-path="url(#e41c665158)"><g clip-path="url(#0898a2b9e1)"><g clip-path="url(#6f1fc26465)"><path fill="#ffc6bc" d="M 0.5 0.5 L 300.5 0.5 L 300.5 300.5 L 0.5 300.5 Z M 0.5 0.5 " fill-opacity="1" fill-rule="nonzero"/></g></g></g></g></g></g><path fill="#131d23" d="M 212.585938 107.234375 C 213.367188 107.101562 216.246094 107.179688 217.164062 107.230469 C 225.425781 107.628906 233.480469 109.933594 240.703125 113.960938 C 253.273438 121.121094 262.195312 132.242188 265.988281 146.273438 C 269.523438 159.742188 267.640625 174.0625 260.742188 186.160156 C 253.691406 198.382812 242.078125 207.304688 228.453125 210.964844 C 215.558594 214.4375 200.800781 212.859375 189.1875 206.132812 C 188.007812 207.707031 186.484375 210.195312 185.296875 211.9375 L 175.761719 225.90625 C 174.5 227.761719 173.316406 229.65625 172.019531 231.480469 C 170.730469 233.292969 169.828125 233.132812 167.960938 232.179688 C 160.285156 228.273438 152.675781 224.230469 145.019531 220.289062 C 143.070312 219.285156 141.035156 218.277344 139.136719 217.191406 C 135.050781 223.113281 131.070312 229.199219 126.878906 235.039062 C 125.347656 237.398438 113.125 255.65625 112.433594 256.023438 C 112.066406 256.214844 111.789062 256.265625 111.394531 256.121094 C 110.085938 255.640625 105.480469 252.792969 105.101562 251.480469 C 104.976562 251.042969 105.019531 250.769531 105.242188 250.382812 C 106.894531 247.5625 108.976562 244.882812 110.832031 242.183594 L 121.335938 226.859375 L 130.824219 212.984375 C 132.269531 210.859375 133.710938 208.730469 135.164062 206.613281 C 135.945312 205.429688 137.675781 206.027344 138.691406 206.59375 C 148.054688 211.785156 158.226562 216.363281 167.425781 221.78125 C 169.105469 218.867188 171.957031 214.984375 173.902344 212.144531 C 176.386719 208.523438 178.910156 204.625 181.460938 201.082031 C 179.195312 199.019531 176.902344 196.863281 174.886719 194.585938 C 153.03125 169.878906 159.578125 130.75 188.136719 114.414062 C 196.171875 109.816406 203.222656 107.832031 212.585938 107.234375 Z M 186.550781 193.832031 C 190.1875 187.996094 194.703125 182.085938 198.488281 176.265625 C 199.457031 174.777344 200.640625 173.28125 201.582031 171.796875 C 198.261719 168.222656 196.527344 163.453125 196.773438 158.578125 C 197.230469 147.855469 206.382812 140.078125 216.953125 140.804688 C 227.171875 141.507812 235.011719 150.308594 234.261719 160.601562 C 234.066406 162.972656 233.359375 166.355469 232.058594 168.335938 C 226.820312 176.496094 218.554688 180.03125 209.144531 176.929688 C 208.414062 178.175781 207.550781 179.421875 206.730469 180.609375 C 202.503906 186.710938 198.402344 192.988281 194.03125 198.980469 C 205.308594 204.546875 216.90625 205.839844 228.917969 201.765625 C 240.203125 197.898438 249.476562 189.683594 254.675781 178.949219 C 259.691406 168.597656 260.410156 156.683594 256.675781 145.808594 C 252.792969 134.640625 244.664062 125.457031 234.050781 120.246094 C 226.675781 116.691406 220.414062 115.695312 212.363281 115.886719 C 187.191406 117.746094 168.613281 138.785156 170.796875 164.019531 C 171.726562 174.757812 177.140625 185.847656 185.367188 192.875 C 185.753906 193.203125 186.148438 193.523438 186.550781 193.832031 Z M 186.550781 193.832031 " fill-opacity="1" fill-rule="nonzero"/></svg>