<svg xmlns="http://www.w3.org/2000/svg" xmlns:xlink="http://www.w3.org/1999/xlink" width="500" zoomAndPan="magnify" viewBox="0 0 375 374.999991" height="500" preserveAspectRatio="xMidYMid meet" version="1.0"><defs><clipPath id="f798205ce8"><path d="M 37.5 37.5 L 337.5 37.5 L 337.5 337.5 L 37.5 337.5 Z M 37.5 37.5 " clip-rule="nonzero"/></clipPath><clipPath id="0ad757a078"><path d="M 61.5 37.5 L 313.5 37.5 C 319.863281 37.5 325.96875 40.027344 330.46875 44.53125 C 334.972656 49.03125 337.5 55.136719 337.5 61.5 L 337.5 313.5 C 337.5 319.863281 334.972656 325.96875 330.46875 330.46875 C 325.96875 334.972656 319.863281 337.5 313.5 337.5 L 61.5 337.5 C 55.136719 337.5 49.03125 334.972656 44.53125 330.46875 C 40.027344 325.96875 37.5 319.863281 37.5 313.5 L 37.5 61.5 C 37.5 55.136719 40.027344 49.03125 44.53125 44.53125 C 49.03125 40.027344 55.136719 37.5 61.5 37.5 Z M 61.5 37.5 " clip-rule="nonzero"/></clipPath><clipPath id="f074233f79"><path d="M 0.5 0.5 L 300.5 0.5 L 300.5 300.5 L 0.5 300.5 Z M 0.5 0.5 " clip-rule="nonzero"/></clipPath><clipPath id="8e39607877"><path d="M 24.5 0.5 L 276.5 0.5 C 282.863281 0.5 288.96875 3.027344 293.46875 7.53125 C 297.972656 12.03125 300.5 18.136719 300.5 24.5 L 300.5 276.5 C 300.5 282.863281 297.972656 288.96875 293.46875 293.46875 C 288.96875 297.972656 282.863281 300.5 276.5 300.5 L 24.5 300.5 C 18.136719 300.5 12.03125 297.972656 7.53125 293.46875 C 3.027344 288.96875 0.5 282.863281 0.5 276.5 L 0.5 24.5 C 0.5 18.136719 3.027344 12.03125 7.53125 7.53125 C 12.03125 3.027344 18.136719 0.5 24.5 0.5 Z M 24.5 0.5 " clip-rule="nonzero"/></clipPath><clipPath id="9cc23a1de5"><rect x="0" width="301" y="0" height="301"/></clipPath></defs><g clip-path="url(#f798205ce8)"><g clip-path="url(#0ad757a078)"><g transform="matrix(1, 0, 0, 1, 37, 37)"><g clip-path="url(#9cc23a1de5)"><g clip-path="url(#f074233f79)"><g clip-path="url(#8e39607877)"><path fill="#dccf8f" d="M 0.5 0.5 L 300.5 0.5 L 300.5 300.5 L 0.5 300.5 Z M 0.5 0.5 " fill-opacity="1" fill-rule="nonzero"/></g></g></g></g></g></g><path fill="#151d25" d="M 222.628906 112.417969 L 222.757812 112.410156 C 226.320312 112.1875 231.15625 112.558594 234.664062 113.101562 C 247.304688 114.984375 259.125 120.503906 268.683594 128.988281 C 281.726562 140.425781 289.648438 156.609375 290.679688 173.929688 C 291.847656 191.414062 285.898438 208.625 274.183594 221.65625 C 262.800781 234.429688 246.875 242.242188 229.804688 243.425781 C 211.929688 244.5 195.136719 239.351562 181.667969 227.382812 C 177.667969 227.546875 172.648438 227.375 168.542969 227.371094 L 146.3125 227.394531 C 145.347656 226.808594 145.035156 226.523438 144.253906 225.757812 C 143.90625 224.132812 143.714844 220.414062 145.121094 219.351562 C 146.363281 218.410156 150.347656 218.753906 151.878906 218.75 C 154.761719 218.714844 157.644531 218.703125 160.527344 218.710938 C 168.777344 218.707031 177.15625 218.632812 185.398438 218.734375 C 186.367188 219.902344 188.382812 221.777344 189.609375 222.644531 C 190.644531 223.539062 192.734375 224.933594 193.890625 225.6875 C 203.226562 231.753906 214.117188 234.984375 225.25 234.988281 C 240.488281 234.890625 255.058594 228.707031 265.714844 217.8125 C 277.484375 205.910156 283.605469 189.289062 281.875 172.574219 C 280.511719 159.425781 274.660156 147.148438 265.304688 137.808594 C 254.773438 127.414062 239.945312 120.933594 225.089844 121.085938 C 207.691406 121.261719 194.707031 127.714844 182.734375 139.867188 C 179.796875 138.632812 176.769531 137.429688 173.648438 136.773438 C 173.953125 136.390625 174.269531 136.015625 174.59375 135.648438 C 187.65625 120.816406 203.101562 113.714844 222.628906 112.417969 Z M 222.628906 112.417969 " fill-opacity="1" fill-rule="nonzero"/><path fill="#151d25" d="M 115.679688 146.527344 C 116.714844 146.375 120.324219 146.488281 121.539062 146.496094 L 133.25 146.515625 C 146.207031 146.519531 159.167969 146.476562 172.125 146.464844 C 173.570312 146.464844 175.097656 146.542969 175.773438 148.082031 C 175.804688 148.152344 175.925781 148.585938 175.90625 148.632812 C 175.148438 150.652344 174.015625 152.5 173.109375 154.46875 C 166.878906 167.796875 166.164062 183.042969 171.117188 196.890625 C 172.140625 199.699219 173.375 202.40625 174.796875 205.027344 C 175.304688 205.964844 175.878906 206.984375 176.246094 207.976562 L 129.273438 207.957031 L 121.484375 207.980469 C 119.816406 207.996094 117.691406 208.148438 116.117188 207.871094 C 114.058594 207.511719 113.707031 205.542969 113.664062 203.863281 C 113.609375 201.800781 113.6875 199.359375 116.316406 199.214844 C 118.398438 199.097656 120.425781 199.160156 122.480469 199.167969 L 133.316406 199.1875 L 152.058594 199.183594 C 155.609375 199.164062 159.074219 199.0625 162.640625 199.117188 C 157.890625 185.859375 158.09375 168.402344 163.132812 155.242188 L 134.398438 155.199219 L 123.015625 155.246094 C 120.976562 155.253906 118.972656 155.25 116.933594 155.207031 C 112.933594 155.128906 113.722656 151.023438 113.8125 148.125 C 114.449219 147.292969 114.773438 147.035156 115.679688 146.527344 Z M 115.679688 146.527344 " fill-opacity="1" fill-rule="nonzero"/><path fill="#151d25" d="M 258.679688 142.265625 C 261.574219 142.054688 263.628906 143.367188 261.753906 146.589844 C 261.105469 147.707031 259.117188 149.707031 258.207031 150.777344 L 250.613281 159.738281 L 238.894531 173.660156 C 237.183594 175.691406 235.421875 177.695312 233.714844 179.722656 C 233.039062 180.519531 232.386719 182.292969 231.636719 183.246094 C 230.367188 184.855469 228.0625 186.054688 226.027344 186.300781 C 223.730469 186.578125 222.570312 186.34375 220.578125 185.324219 C 218 184 218.003906 182.75 216.035156 181.238281 C 213.257812 179.109375 210.429688 177.011719 207.640625 174.894531 L 197.808594 167.335938 C 195.707031 165.613281 190.128906 162.378906 189.492188 159.898438 C 189.175781 158.667969 189.503906 157.503906 190.191406 156.460938 C 190.910156 155.375 191.992188 154.679688 193.277344 154.460938 C 194 154.332031 194.988281 154.285156 195.6875 154.527344 C 196.960938 154.96875 198.292969 155.882812 199.484375 156.527344 L 207.207031 160.691406 L 217.417969 166.082031 C 218.921875 166.871094 221.605469 168.167969 222.949219 169.070312 L 225.238281 168.550781 C 226.445312 167.371094 229.746094 164.96875 231.226562 163.800781 C 236.300781 159.824219 241.394531 155.875 246.507812 151.949219 C 249.054688 149.980469 251.574219 147.976562 254.070312 145.945312 C 255.316406 144.929688 257.410156 143.09375 258.679688 142.265625 Z M 258.679688 142.265625 " fill-opacity="1" fill-rule="nonzero"/><path fill="#151d25" d="M 88.421875 172.75 C 99.855469 173.015625 111.957031 172.824219 123.441406 172.824219 L 137.816406 172.832031 C 140.769531 172.832031 144.078125 172.902344 146.996094 172.738281 C 147.597656 173.050781 148.292969 173.3125 148.71875 173.859375 C 149.882812 175.347656 149.457031 177.972656 149.25 179.753906 C 148.546875 180.835938 148.144531 181.132812 146.921875 181.421875 C 135.402344 181.738281 122.636719 181.519531 111.035156 181.496094 L 96.796875 181.476562 C 94.027344 181.484375 91.222656 181.519531 88.484375 181.464844 C 85.203125 181.441406 85.484375 178.613281 85.515625 176.277344 C 85.546875 174.183594 85.980469 172.976562 88.421875 172.75 Z M 88.421875 172.75 " fill-opacity="1" fill-rule="nonzero"/><path fill="#151d25" d="M 223.3125 125.714844 C 225.609375 125.597656 226.753906 125.152344 228.046875 127.328125 C 228.179688 130.734375 228.113281 135.699219 228.039062 139.113281 C 227.527344 139.988281 227.257812 140.214844 226.433594 140.796875 C 225.554688 140.921875 224.570312 140.882812 223.675781 140.882812 C 222.796875 140.34375 222.546875 139.949219 221.949219 139.152344 C 221.675781 136.625 221.949219 129.992188 222.003906 127.132812 C 222.011719 126.574219 222.855469 126.003906 223.3125 125.714844 Z M 223.3125 125.714844 " fill-opacity="1" fill-rule="nonzero"/><path fill="#151d25" d="M 225.390625 214.089844 C 226.824219 213.972656 227.46875 214.8125 228.097656 215.964844 L 228.046875 227.519531 C 227.0625 229.234375 226.644531 229.382812 224.777344 229.46875 C 223.242188 229.445312 222.742188 229.011719 221.949219 227.746094 C 221.894531 223.890625 221.886719 219.851562 221.996094 215.992188 C 222.023438 215.105469 222.730469 214.691406 223.375 214.183594 C 224.019531 214.128906 224.738281 214.117188 225.390625 214.089844 Z M 225.390625 214.089844 " fill-opacity="1" fill-rule="nonzero"/><path fill="#151d25" d="M 264.207031 174.921875 C 266.113281 174.90625 276.089844 174.476562 277.046875 175.539062 C 277.90625 176.492188 277.621094 178.238281 277.570312 179.417969 C 276.996094 180.25 276.738281 180.5 275.816406 180.917969 C 273.5625 180.765625 271.085938 180.867188 268.804688 180.855469 C 267.367188 180.828125 265.726562 181.039062 264.320312 180.765625 C 262.59375 180.425781 262.25 177.902344 262.664062 176.515625 C 262.917969 175.660156 263.484375 175.332031 264.207031 174.921875 Z M 264.207031 174.921875 " fill-opacity="1" fill-rule="nonzero"/><path fill="#151d25" d="M 173.855469 174.90625 C 177.558594 174.765625 181.699219 174.90625 185.414062 174.988281 C 186.265625 175.007812 186.882812 175.910156 187.304688 176.542969 C 187.40625 178.414062 187.628906 179.582031 185.898438 180.6875 C 183.59375 181.292969 176.703125 180.625 173.953125 180.695312 C 172.675781 180.726562 171.148438 176.609375 173.855469 174.90625 Z M 173.855469 174.90625 " fill-opacity="1" fill-rule="nonzero"/></svg>