<svg xmlns="http://www.w3.org/2000/svg" xmlns:xlink="http://www.w3.org/1999/xlink" width="500" zoomAndPan="magnify" viewBox="0 0 375 374.999991" height="500" preserveAspectRatio="xMidYMid meet" version="1.0"><defs><clipPath id="3727321258"><path d="M 37.5 37.5 L 337.5 37.5 L 337.5 337.5 L 37.5 337.5 Z M 37.5 37.5 " clip-rule="nonzero"/></clipPath><clipPath id="bb8d373ec1"><path d="M 61.5 37.5 L 313.5 37.5 C 319.863281 37.5 325.96875 40.027344 330.46875 44.53125 C 334.972656 49.03125 337.5 55.136719 337.5 61.5 L 337.5 313.5 C 337.5 319.863281 334.972656 325.96875 330.46875 330.46875 C 325.96875 334.972656 319.863281 337.5 313.5 337.5 L 61.5 337.5 C 55.136719 337.5 49.03125 334.972656 44.53125 330.46875 C 40.027344 325.96875 37.5 319.863281 37.5 313.5 L 37.5 61.5 C 37.5 55.136719 40.027344 49.03125 44.53125 44.53125 C 49.03125 40.027344 55.136719 37.5 61.5 37.5 Z M 61.5 37.5 " clip-rule="nonzero"/></clipPath><clipPath id="c589cd1ff9"><path d="M 0.5 0.5 L 300.5 0.5 L 300.5 300.5 L 0.5 300.5 Z M 0.5 0.5 " clip-rule="nonzero"/></clipPath><clipPath id="d504f42af7"><path d="M 24.5 0.5 L 276.5 0.5 C 282.863281 0.5 288.96875 3.027344 293.46875 7.53125 C 297.972656 12.03125 300.5 18.136719 300.5 24.5 L 300.5 276.5 C 300.5 282.863281 297.972656 288.96875 293.46875 293.46875 C 288.96875 297.972656 282.863281 300.5 276.5 300.5 L 24.5 300.5 C 18.136719 300.5 12.03125 297.972656 7.53125 293.46875 C 3.027344 288.96875 0.5 282.863281 0.5 276.5 L 0.5 24.5 C 0.5 18.136719 3.027344 12.03125 7.53125 7.53125 C 12.03125 3.027344 18.136719 0.5 24.5 0.5 Z M 24.5 0.5 " clip-rule="nonzero"/></clipPath><clipPath id="658ef05861"><rect x="0" width="301" y="0" height="301"/></clipPath></defs><g clip-path="url(#3727321258)"><g clip-path="url(#bb8d373ec1)"><g transform="matrix(1, 0, 0, 1, 37, 37)"><g clip-path="url(#658ef05861)"><g clip-path="url(#c589cd1ff9)"><g clip-path="url(#d504f42af7)"><path fill="#dccf8f" d="M 0.5 0.5 L 300.5 0.5 L 300.5 300.5 L 0.5 300.5 Z M 0.5 0.5 " fill-opacity="1" fill-rule="nonzero"/></g></g></g></g></g></g><path fill="#101921" d="M 151.445312 99.097656 C 162.226562 98.097656 175.773438 102.820312 185.878906 106.394531 C 188.640625 105.730469 191.675781 105.304688 194.441406 104.359375 C 206.574219 100.199219 220.445312 97.167969 233.046875 100.496094 C 248.234375 104.503906 257.796875 114.605469 260.769531 129.96875 C 263.648438 144.851562 260.003906 160.199219 254.386719 174.027344 C 251.871094 180.21875 248.527344 186.136719 247.171875 192.761719 C 245.972656 197.851562 245.546875 203.105469 244.640625 208.242188 C 243.964844 212.0625 243.484375 216.058594 242.707031 219.84375 C 240.128906 232.34375 237.207031 245.453125 230.359375 256.386719 C 229.691406 257.480469 228.757812 258.453125 228.054688 259.503906 C 222.789062 267.371094 207.847656 273.035156 202.859375 261.820312 C 200.050781 255.503906 199.261719 247.222656 198.035156 240.261719 C 197.949219 236.585938 192.605469 199.921875 184.710938 210.210938 C 176.078125 221.46875 178.296875 254.417969 170.382812 264.558594 C 168.878906 266.472656 166.664062 267.695312 164.242188 267.949219 C 159.152344 268.519531 154.707031 266.777344 150.792969 263.597656 C 138.730469 253.804688 133.632812 228.703125 131.175781 213.96875 C 130.140625 207.761719 129.464844 201.472656 128.261719 195.296875 C 127.957031 193.734375 127.457031 192.222656 127.035156 190.6875 C 126.6875 189.425781 126.433594 188.136719 126.085938 186.875 C 125.175781 183.5625 123.289062 180.585938 121.964844 177.433594 C 118.027344 168.070312 114.695312 158.199219 113.621094 148.058594 C 112.304688 135.617188 113.714844 122.730469 121.90625 112.699219 C 129.542969 103.34375 139.902344 100.230469 151.445312 99.097656 Z M 207.660156 238.300781 C 208.203125 242.019531 209.761719 256.4375 212.433594 258.324219 C 212.757812 258.554688 213.082031 258.640625 213.480469 258.578125 C 217.039062 258.03125 220.496094 253.777344 222.210938 250.917969 C 229.148438 239.332031 232.519531 223.074219 234.542969 209.859375 C 235.632812 202.75 236.425781 195.554688 238.15625 188.566406 C 239.667969 182.480469 242.582031 177 244.992188 171.261719 C 250 159.34375 254.296875 143.265625 251.042969 130.4375 C 249.328125 123.671875 245.589844 117.226562 239.457031 113.5625 C 228.996094 107.316406 217.46875 107.871094 206.089844 110.796875 C 203.488281 111.464844 200.722656 112.199219 198.222656 113.183594 L 198.4375 113.304688 C 201.921875 115.207031 205.859375 115.480469 209.605469 116.414062 C 210.300781 116.589844 211.148438 117.128906 211.449219 117.820312 C 211.09375 120.589844 203.128906 120.449219 201.089844 120.320312 C 188.722656 119.542969 178.019531 112.628906 166.074219 110.113281 C 163.628906 109.597656 154.957031 107.960938 152.738281 108.605469 C 150.988281 108.789062 149.25 108.929688 147.507812 109.164062 C 128.863281 111.644531 120.820312 128.398438 123.101562 145.761719 C 124.167969 153.851562 126.078125 162.085938 129.25 169.699219 C 131.398438 174.988281 134.574219 181.117188 136.058594 186.476562 C 137.972656 193.523438 138.859375 200.769531 140.070312 207.976562 C 142.183594 220.667969 144.53125 233.726562 149.851562 245.519531 C 151.953125 250.175781 156.234375 258.039062 161.980469 258.488281 C 164.210938 258.660156 165.820312 247.527344 166.136719 245.769531 C 167.152344 239.617188 168.011719 233.074219 169.1875 226.984375 C 170.886719 218.210938 174.015625 201.148438 184.613281 198.964844 C 198.25 196.152344 202.679688 212.675781 204.808594 222.304688 C 205.953125 227.601562 206.90625 232.9375 207.660156 238.300781 Z M 207.660156 238.300781 " fill-opacity="1" fill-rule="nonzero"/></svg>