<svg xmlns="http://www.w3.org/2000/svg" xmlns:xlink="http://www.w3.org/1999/xlink" width="500" zoomAndPan="magnify" viewBox="0 0 375 374.999991" height="500" preserveAspectRatio="xMidYMid meet" version="1.0"><defs><clipPath id="4925b92644"><path d="M 37.5 37.5 L 337.5 37.5 L 337.5 337.5 L 37.5 337.5 Z M 37.5 37.5 " clip-rule="nonzero"/></clipPath><clipPath id="dc15f3b5a5"><path d="M 61.5 37.5 L 313.5 37.5 C 319.863281 37.5 325.96875 40.027344 330.46875 44.53125 C 334.972656 49.03125 337.5 55.136719 337.5 61.5 L 337.5 313.5 C 337.5 319.863281 334.972656 325.96875 330.46875 330.46875 C 325.96875 334.972656 319.863281 337.5 313.5 337.5 L 61.5 337.5 C 55.136719 337.5 49.03125 334.972656 44.53125 330.46875 C 40.027344 325.96875 37.5 319.863281 37.5 313.5 L 37.5 61.5 C 37.5 55.136719 40.027344 49.03125 44.53125 44.53125 C 49.03125 40.027344 55.136719 37.5 61.5 37.5 Z M 61.5 37.5 " clip-rule="nonzero"/></clipPath><clipPath id="9248a7e8db"><path d="M 0.5 0.5 L 300.5 0.5 L 300.5 300.5 L 0.5 300.5 Z M 0.5 0.5 " clip-rule="nonzero"/></clipPath><clipPath id="227b37690f"><path d="M 24.5 0.5 L 276.5 0.5 C 282.863281 0.5 288.96875 3.027344 293.46875 7.53125 C 297.972656 12.03125 300.5 18.136719 300.5 24.5 L 300.5 276.5 C 300.5 282.863281 297.972656 288.96875 293.46875 293.46875 C 288.96875 297.972656 282.863281 300.5 276.5 300.5 L 24.5 300.5 C 18.136719 300.5 12.03125 297.972656 7.53125 293.46875 C 3.027344 288.96875 0.5 282.863281 0.5 276.5 L 0.5 24.5 C 0.5 18.136719 3.027344 12.03125 7.53125 7.53125 C 12.03125 3.027344 18.136719 0.5 24.5 0.5 Z M 24.5 0.5 " clip-rule="nonzero"/></clipPath><clipPath id="bce8ef67bb"><rect x="0" width="301" y="0" height="301"/></clipPath></defs><g clip-path="url(#4925b92644)"><g clip-path="url(#dc15f3b5a5)"><g transform="matrix(1, 0, 0, 1, 37, 37)"><g clip-path="url(#bce8ef67bb)"><g clip-path="url(#9248a7e8db)"><g clip-path="url(#227b37690f)"><path fill="#dccf8f" d="M 0.5 0.5 L 300.5 0.5 L 300.5 300.5 L 0.5 300.5 Z M 0.5 0.5 " fill-opacity="1" fill-rule="nonzero"/></g></g></g></g></g></g><path fill="#1a1a1a" d="M 207.269531 193.429688 C 209.945312 193.324219 212.207031 194.507812 214.640625 195.488281 L 222.515625 198.699219 C 236.066406 204.332031 246.871094 206.683594 255.773438 220.148438 C 257.1875 222.289062 259 225.527344 259.816406 227.941406 C 264.648438 242.238281 264.828125 258.953125 264.847656 273.796875 L 264.851562 281.761719 C 264.851562 283.296875 264.933594 285.902344 264.632812 287.332031 L 263.628906 288.425781 C 262.0625 288.4375 260.113281 288.722656 258.628906 288.375 C 257.734375 288.167969 257.402344 287.550781 256.964844 286.808594 C 257.179688 272.0625 257.699219 244.5625 252.546875 231.328125 C 249.71875 224.058594 244.84375 217.792969 238.042969 213.859375 C 236.121094 212.75 234.050781 211.894531 232.015625 211.007812 C 227.136719 218.019531 222.300781 222.863281 215.398438 227.828125 C 218.671875 234 217.636719 234.085938 212.792969 238.421875 L 207.226562 243.402344 C 201.902344 248.175781 196.703125 253.078125 191.335938 257.828125 C 191.417969 258.695312 191.445312 259.65625 191.4375 260.527344 C 191.351562 269.335938 191.613281 278.222656 191.355469 287.023438 C 189.699219 289.339844 187.855469 288.457031 185.226562 288.570312 C 184.570312 288.144531 183.789062 287.589844 183.714844 286.75 C 183.566406 284.992188 183.636719 283.117188 183.640625 281.351562 L 183.65625 269.304688 C 183.644531 267.359375 183.914062 259.992188 183.378906 258.710938 C 182.492188 256.59375 176.382812 251.953125 174.335938 250.28125 C 170.144531 246.863281 165.992188 243.394531 161.882812 239.878906 C 160.089844 238.347656 158.292969 236.835938 156.550781 235.246094 C 154.171875 233.066406 155.851562 230.019531 157.257812 227.78125 C 152.09375 222.660156 146.484375 217.675781 142.59375 211.375 C 138.582031 213.25 136.386719 214.390625 132.917969 217.222656 C 120.960938 226.996094 119.90625 240.367188 118.933594 254.679688 C 118.445312 261.449219 118.15625 268.234375 118.0625 275.023438 C 118.035156 277.285156 118.042969 279.550781 118.089844 281.8125 C 118.148438 285.132812 118.996094 289.058594 114.460938 288.605469 C 112.414062 288.398438 111.667969 289.0625 110.300781 287.027344 C 110.191406 283.066406 110.320312 278.828125 110.289062 274.855469 C 110.175781 263.621094 110.550781 252.625 112.289062 241.511719 C 113.847656 231.550781 115.953125 223.992188 122.660156 216.1875 C 125.535156 212.871094 128.894531 210 132.621094 207.675781 C 138.390625 204.109375 144.660156 202.175781 150.84375 199.5 C 151.601562 199.171875 152.382812 198.867188 153.148438 198.554688 L 160.460938 195.570312 C 161.699219 195.066406 163.519531 194.265625 164.746094 193.902344 C 165.519531 193.671875 166.324219 193.566406 167.132812 193.585938 C 168.476562 193.613281 169.703125 193.976562 170.914062 194.46875 C 180.527344 198.386719 191.226562 198.582031 201.121094 195.578125 C 202.910156 195.035156 205.429688 193.566406 207.269531 193.429688 Z M 150.121094 208.386719 C 153.582031 212.648438 156.441406 216.949219 160.824219 220.457031 C 163.921875 222.941406 166.75 222.375 166.914062 226.933594 C 166.023438 228.636719 165.007812 230.15625 164.152344 231.898438 C 167.164062 234.167969 169.984375 236.808594 172.972656 239.121094 C 173.496094 239.527344 174.03125 240.078125 174.546875 240.449219 C 177.171875 242.5 181.167969 245.609375 183.554688 247.820312 C 183.582031 245.609375 183.742188 240.796875 183.421875 238.769531 C 183.292969 237.941406 180.609375 233.414062 179.980469 232.203125 L 169.710938 212.816406 C 168.316406 210.222656 166.960938 207.660156 165.453125 205.121094 C 164.988281 204.339844 164.550781 203.277344 164.117188 202.605469 L 163.726562 202.578125 C 160.839844 203.886719 157.996094 205.019531 155.066406 206.222656 C 153.796875 206.746094 151.269531 207.714844 150.121094 208.386719 Z M 191.445312 247.242188 C 194.269531 244.476562 197.515625 241.84375 200.253906 239.160156 L 208.664062 231.675781 C 207.617188 229.914062 205.433594 226.828125 206.097656 224.847656 C 206.714844 223.019531 210.96875 221.855469 212.601562 220.570312 C 215.980469 217.90625 218.863281 215.042969 221.707031 211.820312 C 222.738281 210.671875 223.667969 209.265625 224.636719 208.113281 C 220.03125 206.132812 215.410156 204.195312 210.769531 202.296875 C 206.144531 211.242188 201.441406 220.144531 196.652344 229.003906 C 195.171875 231.777344 192.699219 235.917969 191.574219 238.730469 C 191.25 239.546875 191.4375 245.742188 191.445312 247.242188 Z M 191.445312 247.242188 " fill-opacity="1" fill-rule="nonzero"/><path fill="#1a1a1a" d="M 186.660156 109.867188 C 208.953125 109.429688 227.394531 127.117188 227.886719 149.40625 C 228.382812 171.699219 210.738281 190.183594 188.449219 190.730469 C 166.082031 191.277344 147.519531 173.5625 147.027344 151.195312 C 146.53125 128.828125 164.292969 110.308594 186.660156 109.867188 Z M 155.734375 147.152344 L 166.992188 155.101562 C 173.929688 153.761719 183.246094 151.652344 190.125 151.980469 C 195.652344 152.671875 202.375 154.058594 208.015625 155.136719 C 210.894531 152.796875 216.140625 149.363281 219.296875 147.144531 C 219.207031 146.484375 219.121094 145.820312 219.015625 145.15625 C 216.363281 128.195312 202.617188 116.574219 185.40625 117.253906 C 168.734375 119.066406 157.511719 130.570312 155.734375 147.152344 Z M 169.9375 173 L 169.917969 178.253906 C 179.484375 182.863281 187.742188 185.003906 198.246094 181.300781 C 198.785156 181.113281 199.316406 180.914062 199.84375 180.703125 C 201.625 179.90625 203.382812 179.050781 205.109375 178.140625 C 205.105469 176.429688 205.117188 174.683594 205.085938 172.980469 C 194.675781 172.675781 183.066406 172.898438 172.574219 172.921875 C 171.734375 172.949219 170.765625 173.003906 169.9375 173 Z M 218.8125 157.027344 C 216.824219 158.421875 214.609375 160.121094 212.628906 161.410156 C 212.691406 164.796875 212.714844 168.1875 212.699219 171.574219 C 215.410156 167.613281 217.121094 164.253906 218.285156 159.515625 C 218.445312 158.871094 218.804688 157.625 218.8125 157.027344 Z M 155.976562 156.820312 C 156.667969 161.0625 158.242188 165.316406 160.492188 168.957031 C 160.882812 169.585938 161.601562 170.863281 162.097656 171.335938 L 162.199219 171.324219 C 162.058594 168.117188 162.402344 164.742188 162.226562 161.410156 C 160.183594 159.828125 158.066406 158.335938 155.976562 156.820312 Z M 204.921875 162.367188 C 201.390625 161.648438 189.101562 158.898438 186.117188 159.570312 C 181.402344 160.183594 176.761719 161.066406 172.074219 161.832031 C 171.355469 161.949219 170.679688 162.042969 169.96875 162.214844 C 169.9375 163.335938 169.914062 164.382812 169.929688 165.503906 C 175.6875 165.203125 182.367188 165.582031 188.242188 165.421875 L 199.019531 165.445312 C 200.867188 165.445312 203.167969 165.503906 204.964844 165.378906 C 205.0625 164.195312 205.011719 163.566406 204.921875 162.367188 Z M 204.921875 162.367188 " fill-opacity="1" fill-rule="nonzero"/><path fill="#1a1a1a" d="M 138.464844 253.25 C 139.691406 253.195312 141.53125 253.25 142.753906 253.28125 C 143.175781 253.542969 144.140625 254.164062 144.226562 254.644531 C 144.765625 257.734375 144.546875 262.246094 144.550781 265.359375 C 144.574219 272.511719 144.5625 279.667969 144.511719 286.820312 C 144.058594 287.613281 143.867188 287.992188 143.058594 288.410156 C 141.542969 288.554688 139.738281 288.550781 138.195312 288.585938 C 137.4375 288.117188 136.683594 287.554688 136.691406 286.554688 C 136.71875 283.816406 136.710938 281.078125 136.703125 278.335938 L 136.707031 261.179688 C 136.714844 259.246094 136.667969 256.597656 136.878906 254.65625 C 136.941406 254.109375 138.011719 253.507812 138.464844 253.25 Z M 138.464844 253.25 " fill-opacity="1" fill-rule="nonzero"/><path fill="#1a1a1a" d="M 244.925781 107.179688 C 245.210938 107.21875 245.53125 107.3125 245.695312 107.550781 C 246.730469 109.039062 250.191406 113.875 250.132812 115.367188 C 249.175781 116.511719 238.011719 121.597656 235.734375 122.707031 C 235.300781 122.917969 234.164062 123.234375 233.890625 122.828125 C 233.007812 121.5 231.078125 118.742188 230.902344 117.230469 C 231.269531 116.203125 243.355469 108.25 244.925781 107.179688 Z M 244.925781 107.179688 " fill-opacity="1" fill-rule="nonzero"/><path fill="#1a1a1a" d="M 129.476562 107.152344 C 131.40625 107.488281 140.324219 114.546875 142.507812 115.832031 C 142.875 116.046875 143.785156 116.933594 143.984375 117.3125 C 143.886719 118.394531 141.699219 121.921875 140.9375 122.863281 C 140.746094 123.101562 139.988281 123.039062 139.605469 122.917969 C 135.078125 120.609375 128.652344 117.914062 124.496094 115.484375 C 125.25 113.589844 128.273438 108.835938 129.476562 107.152344 Z M 129.476562 107.152344 " fill-opacity="1" fill-rule="nonzero"/><path fill="#1a1a1a" d="M 145.992188 90.171875 C 146.21875 90.183594 146.511719 90.203125 146.722656 90.296875 C 147.410156 90.609375 156.359375 103.253906 156.898438 104.328125 C 156.980469 105.371094 154.542969 107.023438 153.75 107.660156 C 152.949219 108.304688 152.023438 109.351562 151.0625 108.4375 C 149.476562 106.617188 139.921875 97.609375 139.574219 95.972656 C 140.097656 94.609375 144.558594 91.351562 145.992188 90.171875 Z M 145.992188 90.171875 " fill-opacity="1" fill-rule="nonzero"/><path fill="#1a1a1a" d="M 133.9375 151.671875 C 136.339844 151.132812 135.933594 153.492188 136.261719 155.035156 C 136.46875 155.988281 136.710938 157.070312 136.554688 158.039062 C 136.011719 158.988281 131.179688 159.972656 129.875 160.324219 L 120.265625 163.015625 C 118.71875 163.007812 118.488281 159.78125 118.335938 158.578125 C 118.15625 157.132812 117.394531 155.054688 117.734375 153.722656 C 118.335938 153.148438 131.910156 151.886719 133.9375 151.671875 Z M 133.9375 151.671875 " fill-opacity="1" fill-rule="nonzero"/><path fill="#1a1a1a" d="M 239.917969 151.59375 C 240.636719 151.613281 243.394531 151.878906 244.019531 152.011719 C 246.539062 152.546875 255.558594 152.691406 257.175781 153.808594 C 257.472656 154.820312 256.058594 161.441406 255.703125 162.746094 C 255.464844 162.84375 255.09375 163.019531 254.835938 162.972656 C 251.160156 162.273438 247.585938 161.101562 244.011719 160.039062 C 242.546875 159.605469 241.210938 159.386719 239.78125 158.914062 C 239.292969 158.75 238.878906 158.589844 238.515625 158.242188 C 238.167969 157.410156 238.394531 156.558594 238.613281 155.707031 C 239.011719 154.171875 238.5625 152.664062 239.917969 151.59375 Z M 239.917969 151.59375 " fill-opacity="1" fill-rule="nonzero"/><path fill="#1a1a1a" d="M 206.871094 79.640625 C 208.25 79.824219 214.585938 82.074219 215.496094 83.0625 C 215.539062 83.871094 209.804688 95.855469 209.027344 97.542969 C 208.804688 98.023438 208.257812 99.320312 207.582031 99.179688 C 206.21875 98.886719 203.167969 98.09375 202.152344 97.195312 C 201.527344 96.101562 205.949219 80.632812 206.871094 79.640625 Z M 206.871094 79.640625 " fill-opacity="1" fill-rule="nonzero"/><path fill="#1a1a1a" d="M 167.359375 79.839844 C 167.832031 79.746094 167.660156 79.769531 168.160156 79.863281 C 168.347656 79.980469 168.5 80.089844 168.601562 80.292969 C 169.105469 81.324219 173.21875 96.128906 172.898438 96.875 C 172.734375 97.253906 172.300781 97.519531 171.941406 97.691406 C 171.585938 97.863281 167.933594 99.199219 167.746094 99.226562 C 167.457031 99.273438 167.171875 99.261719 166.90625 99.128906 C 166.425781 98.894531 166.347656 98.5 166.144531 98.046875 C 164.859375 95.175781 163.539062 92.324219 162.175781 89.488281 C 161.6875 88.46875 159.0625 83.488281 159.609375 82.949219 C 160.808594 81.78125 165.71875 80.339844 167.359375 79.839844 Z M 167.359375 79.839844 " fill-opacity="1" fill-rule="nonzero"/><path fill="#1a1a1a" d="M 228.300781 90.179688 C 229.335938 90.371094 235.097656 95.054688 235.5 95.96875 C 235.003906 97.378906 225.953125 106.28125 224.503906 107.75 C 224.390625 107.890625 224.273438 108.023438 224.148438 108.152344 C 223.808594 108.507812 223.460938 108.699219 222.953125 108.683594 C 221.765625 108.652344 220.695312 107.128906 219.8125 106.464844 C 219.382812 106.140625 218.777344 105.886719 218.4375 105.457031 C 218.207031 105.167969 218.140625 104.871094 218.207031 104.507812 C 218.40625 103.394531 227.039062 91.191406 228.300781 90.179688 Z M 228.300781 90.179688 " fill-opacity="1" fill-rule="nonzero"/><path fill="#1a1a1a" d="M 254.933594 129.210938 C 255.089844 129.253906 255.382812 129.339844 255.476562 129.464844 C 256.253906 130.503906 257.640625 137.746094 257.03125 138.570312 C 255.472656 139.3125 243.214844 140.324219 240.929688 140.34375 C 239.246094 140.496094 239.207031 139.652344 239.074219 138.300781 C 238.929688 136.886719 238.160156 135.117188 238.703125 133.726562 C 240.292969 132.6875 252.023438 130.117188 254.933594 129.210938 Z M 254.933594 129.210938 " fill-opacity="1" fill-rule="nonzero"/><path fill="#1a1a1a" d="M 119.863281 129.148438 C 124.449219 130.425781 129.136719 131.625 133.746094 132.808594 C 137.9375 133.886719 136.238281 134.34375 135.878906 138.015625 C 135.769531 139.164062 135.804688 139.851562 134.625 140.347656 C 130.886719 140.089844 127.148438 139.796875 123.414062 139.472656 C 122.699219 139.40625 118.171875 139.101562 117.804688 138.433594 C 117.378906 137.285156 117.957031 135.058594 118.230469 133.90625 C 118.621094 132.269531 118.34375 130 119.863281 129.148438 Z M 119.863281 129.148438 " fill-opacity="1" fill-rule="nonzero"/><path fill="#1a1a1a" d="M 186.566406 77.121094 C 188.0625 77.089844 190.933594 76.847656 192.109375 77.558594 C 192.351562 78.734375 191.015625 94.550781 190.675781 94.984375 C 190.335938 95.425781 189.734375 95.496094 189.226562 95.539062 C 187.605469 95.53125 185.527344 95.914062 184.269531 94.980469 C 183.929688 94.460938 182.5625 79.195312 182.804688 77.65625 C 183.566406 76.988281 185.480469 77.140625 186.566406 77.121094 Z M 186.566406 77.121094 " fill-opacity="1" fill-rule="nonzero"/></svg>