<svg xmlns="http://www.w3.org/2000/svg" xmlns:xlink="http://www.w3.org/1999/xlink" width="500" zoomAndPan="magnify" viewBox="0 0 375 374.999991" height="500" preserveAspectRatio="xMidYMid meet" version="1.0"><defs><clipPath id="636cce9756"><path d="M 37.5 37.5 L 337.5 37.5 L 337.5 337.5 L 37.5 337.5 Z M 37.5 37.5 " clip-rule="nonzero"/></clipPath><clipPath id="e2581dcd56"><path d="M 61.5 37.5 L 313.5 37.5 C 319.863281 37.5 325.96875 40.027344 330.46875 44.53125 C 334.972656 49.03125 337.5 55.136719 337.5 61.5 L 337.5 313.5 C 337.5 319.863281 334.972656 325.96875 330.46875 330.46875 C 325.96875 334.972656 319.863281 337.5 313.5 337.5 L 61.5 337.5 C 55.136719 337.5 49.03125 334.972656 44.53125 330.46875 C 40.027344 325.96875 37.5 319.863281 37.5 313.5 L 37.5 61.5 C 37.5 55.136719 40.027344 49.03125 44.53125 44.53125 C 49.03125 40.027344 55.136719 37.5 61.5 37.5 Z M 61.5 37.5 " clip-rule="nonzero"/></clipPath><clipPath id="d23073dedc"><path d="M 0.5 0.5 L 300.5 0.5 L 300.5 300.5 L 0.5 300.5 Z M 0.5 0.5 " clip-rule="nonzero"/></clipPath><clipPath id="c01640e883"><path d="M 24.5 0.5 L 276.5 0.5 C 282.863281 0.5 288.96875 3.027344 293.46875 7.53125 C 297.972656 12.03125 300.5 18.136719 300.5 24.5 L 300.5 276.5 C 300.5 282.863281 297.972656 288.96875 293.46875 293.46875 C 288.96875 297.972656 282.863281 300.5 276.5 300.5 L 24.5 300.5 C 18.136719 300.5 12.03125 297.972656 7.53125 293.46875 C 3.027344 288.96875 0.5 282.863281 0.5 276.5 L 0.5 24.5 C 0.5 18.136719 3.027344 12.03125 7.53125 7.53125 C 12.03125 3.027344 18.136719 0.5 24.5 0.5 Z M 24.5 0.5 " clip-rule="nonzero"/></clipPath><clipPath id="66c0cb343d"><rect x="0" width="301" y="0" height="301"/></clipPath></defs><g clip-path="url(#636cce9756)"><g clip-path="url(#e2581dcd56)"><g transform="matrix(1, 0, 0, 1, 37, 37)"><g clip-path="url(#66c0cb343d)"><g clip-path="url(#d23073dedc)"><g clip-path="url(#c01640e883)"><path fill="#dccf8f" d="M 0.5 0.5 L 300.5 0.5 L 300.5 300.5 L 0.5 300.5 Z M 0.5 0.5 " fill-opacity="1" fill-rule="nonzero"/></g></g></g></g></g></g><path fill="#1c1f20" d="M 134.683594 108.996094 C 136.191406 108.882812 138.859375 109.023438 140.492188 109.035156 L 151.730469 109.046875 L 190.664062 109.042969 L 227.03125 109.054688 L 237.59375 108.996094 C 240.824219 108.992188 243.402344 108.882812 246.625 109.453125 C 253.433594 110.667969 259.480469 114.539062 263.4375 120.210938 C 267.273438 125.789062 268.722656 132.664062 267.464844 139.316406 C 266.324219 145.652344 262.398438 151.9375 257.117188 155.609375 C 265.460938 161.769531 269.503906 171.011719 267.628906 181.335938 C 266.40625 188.035156 262.585938 193.976562 257 197.871094 C 258.28125 198.808594 259.484375 199.847656 260.601562 200.976562 C 272.519531 212.976562 269.667969 232.847656 255.273438 241.304688 C 250.367188 244.191406 246.042969 245.050781 240.417969 245.019531 L 163.617188 245.007812 L 142.492188 245.007812 C 138.332031 245.011719 132.316406 245.324219 128.355469 244.566406 C 105.792969 240.261719 98.785156 211.503906 117.960938 197.847656 C 115.570312 196.238281 113.492188 194.199219 111.835938 191.839844 C 103.203125 179.75 105.769531 164.183594 117.914062 155.605469 C 116.917969 154.925781 115.976562 154.164062 115.097656 153.335938 C 110.078125 148.652344 107.136719 142.164062 106.921875 135.304688 C 106.796875 128.414062 109.433594 121.757812 114.242188 116.820312 C 120.214844 110.621094 126.5 109.171875 134.683594 108.996094 Z M 131.800781 202.433594 C 126.609375 203.214844 122.800781 205.015625 119.574219 209.378906 C 117.03125 212.851562 115.957031 217.191406 116.585938 221.453125 C 117.296875 225.832031 119.710938 229.75 123.300781 232.355469 C 127.476562 235.363281 130.691406 235.457031 135.5625 235.519531 C 138.660156 235.550781 141.757812 235.5625 144.859375 235.550781 L 170.507812 235.535156 L 214.617188 235.558594 C 223.886719 235.566406 233.484375 235.679688 242.738281 235.472656 C 247.859375 234.953125 251.628906 233.207031 254.921875 229.121094 C 257.609375 225.796875 258.859375 221.539062 258.398438 217.289062 C 257.953125 212.953125 255.785156 208.976562 252.382812 206.253906 C 247.476562 202.335938 244.09375 202.386719 238.152344 202.402344 L 229.683594 202.425781 L 201.253906 202.441406 L 154.816406 202.40625 L 139.625 202.402344 C 137.238281 202.40625 134.128906 202.3125 131.800781 202.433594 Z M 242.402344 193.082031 C 251.6875 192.5625 259.089844 185.125 258.515625 175.683594 C 258.242188 171.351562 256.234375 167.316406 252.945312 164.484375 C 248.042969 160.175781 244.03125 160.175781 237.933594 160.1875 L 229.847656 160.191406 L 201.710938 160.191406 L 153.808594 160.1875 L 139.6875 160.183594 C 137.324219 160.175781 134.898438 160.011719 132.5625 160.113281 C 127.207031 160.753906 123.273438 162.359375 119.792969 166.757812 C 117.140625 170.109375 115.960938 174.394531 116.527344 178.628906 C 117.523438 186.558594 124.15625 192.835938 132.292969 193.054688 C 133.367188 193.082031 134.445312 193.082031 135.523438 193.089844 C 138.75 193.117188 141.976562 193.128906 145.203125 193.121094 L 175.097656 193.128906 L 220.117188 193.128906 L 234.738281 193.121094 C 236.90625 193.121094 240.296875 193.21875 242.402344 193.082031 Z M 243.472656 150.777344 C 252.078125 150.328125 258.890625 142.15625 258.4375 133.675781 C 258.019531 125.878906 251.835938 119.472656 244.199219 118.328125 C 242.386719 118.058594 240.1875 118.15625 238.324219 118.160156 L 230.070312 118.171875 L 202.09375 118.175781 L 154.914062 118.171875 L 140.074219 118.164062 C 137.425781 118.160156 134.078125 117.972656 131.503906 118.207031 C 122.539062 119.117188 115.523438 127.25 116.515625 136.273438 C 117.023438 140.566406 119.195312 144.492188 122.5625 147.203125 C 127.789062 151.355469 131.9375 150.929688 138.222656 150.945312 L 150.761719 150.949219 L 190.886719 150.941406 L 226.332031 150.925781 L 236.945312 150.9375 C 238.933594 150.941406 241.570312 151.082031 243.472656 150.777344 Z M 243.472656 150.777344 " fill-opacity="1" fill-rule="nonzero"/><path fill="#1c1f20" d="M 153.375 213.5625 C 158.863281 213.457031 165.121094 213.628906 170.703125 213.628906 L 215.84375 213.558594 C 220.3125 213.527344 224.691406 213.703125 229.210938 213.558594 C 229.175781 217.074219 229.214844 220.648438 229.226562 224.167969 C 228.804688 224.269531 224.761719 224.226562 224.003906 224.222656 L 210.945312 224.214844 L 153.378906 224.214844 C 153.589844 221.738281 153.410156 216.214844 153.375 213.5625 Z M 153.375 213.5625 " fill-opacity="1" fill-rule="nonzero"/><path fill="#1c1f20" d="M 135.101562 212.34375 C 138.644531 211.773438 141.980469 214.183594 142.554688 217.730469 C 143.125 221.273438 140.71875 224.613281 137.175781 225.1875 C 133.625 225.765625 130.285156 223.351562 129.710938 219.804688 C 129.136719 216.253906 131.550781 212.914062 135.101562 212.34375 Z M 135.101562 212.34375 " fill-opacity="1" fill-rule="nonzero"/><path fill="#1c1f20" d="M 134.785156 170.058594 C 137.085938 169.566406 139.476562 170.359375 141.023438 172.132812 C 142.570312 173.90625 143.039062 176.378906 142.238281 178.59375 C 141.441406 180.808594 139.507812 182.414062 137.183594 182.792969 C 133.710938 183.359375 130.421875 181.050781 129.773438 177.59375 C 129.121094 174.140625 131.347656 170.792969 134.785156 170.058594 Z M 134.785156 170.058594 " fill-opacity="1" fill-rule="nonzero"/><path fill="#1c1f20" d="M 177.558594 170.957031 C 179.894531 170.929688 182.886719 170.882812 185.164062 171.039062 C 185.144531 174.648438 185.140625 178.253906 185.164062 181.859375 L 181.273438 181.878906 C 178.96875 181.890625 176.125 181.816406 173.871094 181.972656 C 173.84375 178.316406 173.847656 174.660156 173.875 171.003906 Z M 177.558594 170.957031 " fill-opacity="1" fill-rule="nonzero"/><path fill="#1c1f20" d="M 153.390625 171.019531 L 164.652344 171.035156 L 164.679688 181.863281 C 161.671875 181.683594 156.589844 181.863281 153.421875 181.871094 Z M 153.390625 171.019531 " fill-opacity="1" fill-rule="nonzero"/><path fill="#1c1f20" d="M 194.246094 171.074219 C 197.871094 170.960938 201.824219 171.027344 205.472656 171.027344 C 205.421875 174.542969 205.457031 178.320312 205.496094 181.839844 C 202.824219 181.636719 197.117188 181.832031 194.226562 181.859375 C 194.265625 178.261719 194.273438 174.667969 194.246094 171.074219 Z M 194.246094 171.074219 " fill-opacity="1" fill-rule="nonzero"/><path fill="#1c1f20" d="M 214.660156 171.03125 L 225.753906 171.042969 C 225.71875 173.605469 225.945312 179.660156 225.6875 181.855469 C 222.019531 181.90625 218.285156 181.878906 214.609375 181.882812 C 214.839844 179.425781 214.742188 173.597656 214.660156 171.03125 Z M 214.660156 171.03125 " fill-opacity="1" fill-rule="nonzero"/><path fill="#1c1f20" d="M 153.390625 129.117188 C 178.59375 129.246094 204.0625 128.867188 229.21875 129.160156 C 229.15625 130.605469 229.339844 139.136719 229.066406 139.683594 L 178.449219 139.695312 L 162.449219 139.683594 C 159.660156 139.683594 156.148438 139.597656 153.425781 139.757812 C 153.484375 136.75 153.539062 132.039062 153.390625 129.117188 Z M 153.390625 129.117188 " fill-opacity="1" fill-rule="nonzero"/><path fill="#1c1f20" d="M 134.878906 127.96875 C 138.398438 127.273438 141.8125 129.574219 142.488281 133.097656 C 143.167969 136.621094 140.851562 140.027344 137.328125 140.691406 C 133.820312 141.351562 130.441406 139.050781 129.765625 135.546875 C 129.09375 132.046875 131.378906 128.65625 134.878906 127.96875 Z M 134.878906 127.96875 " fill-opacity="1" fill-rule="nonzero"/></svg>