<svg xmlns="http://www.w3.org/2000/svg" xmlns:xlink="http://www.w3.org/1999/xlink" width="500" zoomAndPan="magnify" viewBox="0 0 375 374.999991" height="500" preserveAspectRatio="xMidYMid meet" version="1.0"><defs><clipPath id="8713f581b1"><path d="M 37.5 37.5 L 337.5 37.5 L 337.5 337.5 L 37.5 337.5 Z M 37.5 37.5 " clip-rule="nonzero"/></clipPath><clipPath id="8a24d8cd09"><path d="M 61.5 37.5 L 313.5 37.5 C 319.863281 37.5 325.96875 40.027344 330.46875 44.53125 C 334.972656 49.03125 337.5 55.136719 337.5 61.5 L 337.5 313.5 C 337.5 319.863281 334.972656 325.96875 330.46875 330.46875 C 325.96875 334.972656 319.863281 337.5 313.5 337.5 L 61.5 337.5 C 55.136719 337.5 49.03125 334.972656 44.53125 330.46875 C 40.027344 325.96875 37.5 319.863281 37.5 313.5 L 37.5 61.5 C 37.5 55.136719 40.027344 49.03125 44.53125 44.53125 C 49.03125 40.027344 55.136719 37.5 61.5 37.5 Z M 61.5 37.5 " clip-rule="nonzero"/></clipPath><clipPath id="1819bf175b"><path d="M 0.5 0.5 L 300.5 0.5 L 300.5 300.5 L 0.5 300.5 Z M 0.5 0.5 " clip-rule="nonzero"/></clipPath><clipPath id="688d5edcd7"><path d="M 24.5 0.5 L 276.5 0.5 C 282.863281 0.5 288.96875 3.027344 293.46875 7.53125 C 297.972656 12.03125 300.5 18.136719 300.5 24.5 L 300.5 276.5 C 300.5 282.863281 297.972656 288.96875 293.46875 293.46875 C 288.96875 297.972656 282.863281 300.5 276.5 300.5 L 24.5 300.5 C 18.136719 300.5 12.03125 297.972656 7.53125 293.46875 C 3.027344 288.96875 0.5 282.863281 0.5 276.5 L 0.5 24.5 C 0.5 18.136719 3.027344 12.03125 7.53125 7.53125 C 12.03125 3.027344 18.136719 0.5 24.5 0.5 Z M 24.5 0.5 " clip-rule="nonzero"/></clipPath><clipPath id="4df6fef18e"><rect x="0" width="301" y="0" height="301"/></clipPath></defs><g clip-path="url(#8713f581b1)"><g clip-path="url(#8a24d8cd09)"><g transform="matrix(1, 0, 0, 1, 37, 37)"><g clip-path="url(#4df6fef18e)"><g clip-path="url(#1819bf175b)"><g clip-path="url(#688d5edcd7)"><path fill="#dccf8f" d="M 0.5 0.5 L 300.5 0.5 L 300.5 300.5 L 0.5 300.5 Z M 0.5 0.5 " fill-opacity="1" fill-rule="nonzero"/></g></g></g></g></g></g><path fill="#25282a" d="M 186.015625 108.40625 C 187.421875 108.253906 189.183594 108.199219 190.460938 108.792969 C 193.089844 110.015625 195.613281 111.695312 198.160156 113.09375 L 218.488281 124.449219 L 242.304688 137.519531 C 245.355469 139.207031 248.449219 140.84375 251.492188 142.539062 C 252.367188 143.113281 253.804688 144.65625 254.050781 145.667969 C 255.066406 149.796875 254.667969 155.460938 254.664062 159.730469 L 254.652344 181.539062 L 254.675781 202.640625 C 254.6875 206.5625 254.726562 210.492188 254.679688 214.40625 C 254.644531 217.0625 253.738281 219.683594 251.359375 221.117188 C 248.113281 223.074219 244.683594 224.777344 241.367188 226.632812 C 232.882812 231.382812 224.367188 236.085938 215.824219 240.734375 L 198.8125 250.179688 C 196.5625 251.429688 191.613281 254.339844 189.40625 255.148438 C 186.960938 255.300781 185.828125 255.40625 183.605469 254.199219 C 179.144531 251.777344 174.703125 249.277344 170.253906 246.839844 L 142.691406 231.667969 C 138.417969 229.28125 134.128906 226.914062 129.828125 224.574219 C 127.191406 223.132812 121.441406 220.734375 120.835938 217.578125 C 119.992188 213.175781 120.328125 207.847656 120.335938 203.300781 L 120.355469 185.214844 L 120.355469 161.84375 C 120.359375 157.550781 120.316406 153.253906 120.425781 148.960938 C 120.492188 146.378906 121.109375 144.078125 123.492188 142.667969 C 127.179688 140.484375 130.980469 138.472656 134.738281 136.40625 L 155.882812 124.714844 L 174.929688 114.109375 C 177.527344 112.667969 183.445312 109.136719 186.015625 108.40625 Z M 129.917969 213.933594 C 134.019531 215.839844 139.300781 219.03125 143.328125 221.25 L 169.8125 235.832031 L 180.214844 241.464844 C 181.175781 241.980469 181.496094 242.347656 182.609375 242.785156 L 182.890625 242.65625 L 182.929688 242.320312 L 182.910156 202.636719 L 182.890625 190.742188 C 182.882812 189.066406 182.765625 185.84375 182.929688 184.300781 C 177.652344 180.964844 170.433594 177.304688 164.871094 174.222656 L 129.894531 154.851562 L 129.882812 192.972656 C 129.886719 199.785156 129.75 207.164062 129.917969 213.933594 Z M 192.257812 184.125 L 192.292969 242.636719 L 192.460938 242.796875 L 192.613281 242.785156 C 202.148438 237.441406 211.710938 232.152344 221.308594 226.917969 C 229.042969 222.65625 237.324219 217.941406 245.160156 213.9375 C 245.054688 207.699219 245.195312 201.527344 245.199219 195.292969 L 245.148438 162.871094 C 245.148438 161.84375 245.382812 155.40625 244.992188 154.945312 C 234.050781 161.109375 223.066406 167.199219 212.039062 173.210938 C 205.578125 176.769531 198.769531 180.699219 192.257812 184.125 Z M 135.035156 147.035156 C 139.4375 149.066406 147.394531 153.789062 151.882812 156.265625 L 187.609375 175.949219 C 198.035156 169.90625 209.226562 164 219.816406 158.148438 L 232.371094 151.183594 C 234.464844 150.019531 237.617188 148.171875 239.722656 147.191406 C 237.816406 145.863281 234.699219 144.183594 232.605469 143.007812 L 219.75 135.894531 L 187.511719 117.914062 C 180.96875 121.621094 174.386719 125.265625 167.769531 128.84375 Z M 135.035156 147.035156 " fill-opacity="1" fill-rule="nonzero"/></svg>