<svg xmlns="http://www.w3.org/2000/svg" xmlns:xlink="http://www.w3.org/1999/xlink" width="500" zoomAndPan="magnify" viewBox="0 0 375 374.999991" height="500" preserveAspectRatio="xMidYMid meet" version="1.0"><defs><clipPath id="5a58962210"><path d="M 37.5 37.5 L 337.5 37.5 L 337.5 337.5 L 37.5 337.5 Z M 37.5 37.5 " clip-rule="nonzero"/></clipPath><clipPath id="36d7e91e50"><path d="M 61.5 37.5 L 313.5 37.5 C 319.863281 37.5 325.96875 40.027344 330.46875 44.53125 C 334.972656 49.03125 337.5 55.136719 337.5 61.5 L 337.5 313.5 C 337.5 319.863281 334.972656 325.96875 330.46875 330.46875 C 325.96875 334.972656 319.863281 337.5 313.5 337.5 L 61.5 337.5 C 55.136719 337.5 49.03125 334.972656 44.53125 330.46875 C 40.027344 325.96875 37.5 319.863281 37.5 313.5 L 37.5 61.5 C 37.5 55.136719 40.027344 49.03125 44.53125 44.53125 C 49.03125 40.027344 55.136719 37.5 61.5 37.5 Z M 61.5 37.5 " clip-rule="nonzero"/></clipPath><clipPath id="719db2bed5"><path d="M 0.5 0.5 L 300.5 0.5 L 300.5 300.5 L 0.5 300.5 Z M 0.5 0.5 " clip-rule="nonzero"/></clipPath><clipPath id="7a381760df"><path d="M 24.5 0.5 L 276.5 0.5 C 282.863281 0.5 288.96875 3.027344 293.46875 7.53125 C 297.972656 12.03125 300.5 18.136719 300.5 24.5 L 300.5 276.5 C 300.5 282.863281 297.972656 288.96875 293.46875 293.46875 C 288.96875 297.972656 282.863281 300.5 276.5 300.5 L 24.5 300.5 C 18.136719 300.5 12.03125 297.972656 7.53125 293.46875 C 3.027344 288.96875 0.5 282.863281 0.5 276.5 L 0.5 24.5 C 0.5 18.136719 3.027344 12.03125 7.53125 7.53125 C 12.03125 3.027344 18.136719 0.5 24.5 0.5 Z M 24.5 0.5 " clip-rule="nonzero"/></clipPath><clipPath id="891d3125f5"><rect x="0" width="301" y="0" height="301"/></clipPath></defs><g clip-path="url(#5a58962210)"><g clip-path="url(#36d7e91e50)"><g transform="matrix(1, 0, 0, 1, 37, 37)"><g clip-path="url(#891d3125f5)"><g clip-path="url(#719db2bed5)"><g clip-path="url(#7a381760df)"><path fill="#dccf8f" d="M 0.5 0.5 L 300.5 0.5 L 300.5 300.5 L 0.5 300.5 Z M 0.5 0.5 " fill-opacity="1" fill-rule="nonzero"/></g></g></g></g></g></g><path fill="#15191b" d="M 214.613281 96.003906 C 214.722656 95.992188 214.832031 95.984375 214.941406 95.976562 C 223.410156 95.503906 231.035156 97.179688 237.574219 102.960938 C 241.757812 106.65625 244.71875 111.542969 246.058594 116.964844 C 247.023438 120.953125 246.824219 124.410156 246.824219 128.460938 L 246.824219 138.253906 L 246.828125 171.101562 C 246.832031 176.621094 246.636719 183.863281 246.953125 189.242188 C 247.128906 189.488281 247.386719 189.675781 247.679688 189.746094 C 249.890625 190.261719 252.101562 190.953125 254.285156 191.570312 L 269.679688 195.863281 C 272.03125 196.507812 274.246094 197.066406 276.660156 197.835938 C 285.441406 200.523438 289.367188 210.949219 283.875 218.464844 C 278.015625 226.476562 268.917969 223.632812 260.835938 222.417969 L 235.359375 218.65625 L 222.789062 216.726562 C 217.601562 215.921875 215.863281 215.476562 210.648438 216.140625 C 210.578125 224.765625 210.527344 234.238281 210.683594 242.832031 C 213.578125 242.804688 216.820312 242.921875 219.628906 242.851562 C 226.90625 242.664062 232.652344 243.195312 238.285156 248.335938 C 241.996094 251.722656 244.730469 257.691406 244.789062 262.734375 C 244.808594 264.347656 244.78125 265.574219 243.59375 266.84375 C 242.449219 268.066406 240.996094 267.957031 239.382812 267.964844 L 169.394531 267.980469 L 146.265625 268.039062 C 142.382812 268.046875 138.421875 268.136719 134.550781 267.960938 C 131.441406 267.816406 130.871094 265.300781 130.898438 262.777344 C 130.964844 257.433594 133.160156 252.339844 136.996094 248.617188 C 142.875 242.894531 148.363281 242.824219 155.832031 242.835938 C 158.941406 242.828125 162.046875 242.84375 165.152344 242.875 C 165.019531 235.765625 165.097656 228.457031 165.101562 221.332031 C 164.824219 221.332031 164.550781 221.332031 164.273438 221.332031 C 151.867188 221.269531 148.054688 210.597656 142.066406 202.015625 C 141.097656 200.628906 137.445312 197.164062 136.046875 195.753906 C 129.292969 188.839844 122.285156 182.136719 115.542969 175.203125 C 113.164062 172.757812 110.765625 170.316406 108.324219 167.933594 C 104.609375 164.300781 100.917969 160.648438 97.246094 156.976562 C 93.707031 153.464844 89.394531 150.203125 89.085938 144.96875 C 88.351562 132.453125 105.789062 123.546875 115.242188 132.382812 C 120.136719 136.851562 124.742188 141.625 129.503906 146.230469 C 132.339844 148.972656 134.613281 150.710938 134.925781 154.925781 C 138.558594 157.242188 142.109375 159.910156 145.589844 162.46875 C 148.738281 164.785156 152.046875 167.136719 155.128906 169.523438 C 156.488281 169.4375 158.433594 169.558594 159.890625 169.539062 C 165.542969 169.457031 171.195312 169.472656 176.847656 169.585938 C 179.804688 169.621094 183.777344 169.285156 186.589844 169.710938 C 188.828125 170.03125 190.972656 170.84375 192.859375 172.085938 C 198.089844 175.570312 199.421875 179.601562 200.582031 185.367188 C 202.300781 184.964844 205.585938 184.480469 207.398438 184.210938 C 211.359375 183.617188 215.992188 182.511719 219.925781 182.753906 C 222.496094 182.914062 225.800781 183.886719 228.371094 184.546875 C 231.863281 185.417969 235.332031 186.363281 238.777344 187.386719 C 238.621094 172 238.773438 156.265625 238.777344 140.855469 L 238.785156 129.097656 C 238.792969 121.929688 238.90625 116.328125 233.714844 110.570312 C 229.882812 106.316406 225.027344 104.328125 219.335938 104.097656 C 212.707031 103.832031 207.945312 105.28125 203.035156 109.800781 C 204.265625 110.757812 205.234375 111.964844 206.097656 113.253906 C 209.183594 117.859375 210.316406 123.5 209.246094 128.941406 C 208.792969 131.21875 207.078125 137.277344 205.074219 138.523438 C 203.949219 139.222656 202.296875 139.316406 201.042969 138.992188 C 198.296875 138.28125 173.585938 120.699219 170.402344 117.945312 C 169.757812 117.390625 169.347656 116.839844 168.921875 116.105469 C 168.71875 112.464844 168.734375 113.265625 170.929688 110.925781 C 178.011719 103.378906 186.796875 101.789062 196.449219 105.207031 C 199.386719 101.324219 205.164062 98 209.820312 96.878906 C 211.386719 96.5 213.015625 96.253906 214.613281 96.003906 Z M 214.417969 207.617188 C 216.867188 207.566406 219.261719 208.046875 221.683594 208.421875 L 230.765625 209.824219 L 260.441406 214.292969 C 264.351562 214.898438 268.78125 215.710938 272.753906 215.996094 C 274.054688 216.089844 276.058594 215.035156 276.964844 214.0625 C 277.84375 213.136719 278.289062 211.882812 278.191406 210.609375 C 277.992188 207.621094 275.820312 205.976562 273.171875 205.191406 C 270.730469 204.472656 268.285156 203.804688 265.832031 203.117188 C 260.78125 201.6875 255.722656 200.289062 250.65625 198.917969 C 241.242188 196.34375 231.882812 193.597656 222.375 191.371094 C 221 191.050781 219.628906 190.675781 218.207031 190.789062 C 214.667969 190.941406 207.296875 192.347656 203.378906 192.945312 C 192.367188 194.625 181.371094 196.402344 170.390625 198.277344 L 157.894531 200.390625 C 156.015625 200.710938 153.101562 201.308594 151.308594 201.484375 L 154.484375 206.226562 C 159.703125 214.046875 162.195312 213.980469 171.238281 212.835938 C 173.09375 212.601562 175.101562 212.355469 176.957031 212.125 L 203.058594 208.90625 C 206.257812 208.527344 211.414062 207.71875 214.417969 207.617188 Z M 139.410156 259.828125 C 143.683594 259.683594 148.941406 259.84375 153.316406 259.839844 L 182.300781 259.839844 L 222.472656 259.808594 C 225.453125 259.804688 228.433594 259.785156 231.417969 259.746094 C 232.78125 259.738281 234.824219 259.6875 236.152344 259.835938 C 234.976562 256.496094 232.820312 253.558594 229.558594 252.136719 C 225.300781 250.28125 218.367188 250.859375 213.738281 250.859375 L 194.152344 250.855469 L 166.761719 250.875 C 163.273438 250.855469 159.78125 250.855469 156.292969 250.875 C 150.882812 250.894531 146.664062 250.519531 142.539062 254.695312 C 140.921875 256.332031 140.222656 257.707031 139.410156 259.828125 Z M 173.988281 242.8125 C 183.507812 242.890625 193.023438 242.875 202.542969 242.765625 C 202.363281 241.039062 202.457031 237.496094 202.453125 235.65625 L 202.46875 222.40625 C 202.472656 221.710938 202.558594 217.660156 202.414062 217.179688 C 192.945312 218.046875 182.757812 219.597656 173.246094 220.742188 C 173.234375 222.960938 173.140625 242.316406 173.386719 242.839844 C 173.691406 242.851562 173.691406 242.871094 173.988281 242.8125 Z M 179.328125 177.613281 C 174.96875 177.636719 170.4375 177.722656 166.09375 177.683594 C 169.066406 179.835938 172.011719 182.019531 174.9375 184.234375 C 176.015625 185.042969 178.679688 186.96875 179.539062 187.839844 C 179.910156 188.183594 180.070312 188.515625 180.597656 188.453125 C 184.464844 187.96875 188.367188 187.003906 192.230469 186.578125 C 192.042969 184.710938 191.855469 183.265625 190.972656 181.578125 C 188.53125 176.914062 183.800781 177.566406 179.328125 177.613281 Z M 157.582031 192.355469 C 161.359375 191.71875 165.980469 190.832031 169.695312 190.355469 C 161.078125 183.445312 151.800781 177.125 142.964844 170.476562 C 138.894531 167.414062 134.414062 164.546875 130.425781 161.410156 C 127.796875 163.285156 125.183594 165.175781 122.519531 166.992188 C 121.738281 167.527344 120.90625 168.050781 120.1875 168.660156 C 126.707031 174.847656 132.835938 181.625 139.328125 187.867188 C 141.410156 189.871094 143.890625 192.1875 145.761719 194.359375 Z M 200.695312 129.488281 C 203.15625 120.535156 198.363281 112.652344 188.847656 111.460938 C 188.390625 111.402344 187.226562 111.441406 186.78125 111.535156 C 183.8125 111.777344 181.15625 112.796875 178.71875 114.527344 C 180.921875 115.894531 182.757812 117.367188 184.855469 118.785156 C 188.621094 121.332031 192.527344 124.175781 196.367188 126.585938 C 197.867188 127.652344 199.132812 128.523438 200.695312 129.488281 Z M 97.292969 145.640625 C 98.359375 147.085938 101.320312 149.707031 102.726562 151.148438 C 106.570312 155.089844 110.789062 158.988281 114.609375 162.90625 L 116.527344 161.496094 C 119.855469 159.171875 123.050781 156.726562 126.464844 154.515625 L 115.542969 143.90625 C 114.277344 142.667969 113 141.425781 111.699219 140.226562 C 109.605469 138.289062 108.863281 137.039062 105.835938 136.875 C 102.144531 137.195312 98.460938 139.488281 97.40625 143.261719 C 97.183594 144.054688 97.253906 144.820312 97.292969 145.640625 Z M 97.292969 145.640625 " fill-opacity="1" fill-rule="nonzero"/></svg>