<svg xmlns="http://www.w3.org/2000/svg" xmlns:xlink="http://www.w3.org/1999/xlink" width="500" zoomAndPan="magnify" viewBox="0 0 375 131.249995" height="175" preserveAspectRatio="xMidYMid meet" version="1.0"><defs><g/><clipPath id="cbdcfa39bc"><path d="M 38.320312 48 L 106 48 L 106 104 L 38.320312 104 Z M 38.320312 48 " clip-rule="nonzero"/></clipPath><clipPath id="473028417d"><path d="M 40 25.851562 L 104 25.851562 L 104 55 L 40 55 Z M 40 25.851562 " clip-rule="nonzero"/></clipPath><clipPath id="e6ff457f63"><rect x="0" width="218" y="0" height="102"/></clipPath></defs><g clip-path="url(#cbdcfa39bc)"><path fill="#101921" d="M 71.855469 62.792969 L 82.792969 56.453125 C 80.203125 53.246094 76.273438 51.203125 71.855469 51.203125 C 67.4375 51.203125 63.492188 53.25 60.917969 56.453125 Z M 69.664062 66.613281 L 69.664062 79.292969 C 62.933594 78.238281 57.777344 72.390625 57.777344 65.347656 C 57.777344 63.566406 58.109375 61.859375 58.726562 60.273438 Z M 54.886719 58.039062 C 53.921875 60.273438 53.394531 62.757812 53.394531 65.347656 C 53.394531 74.824219 60.515625 82.644531 69.664062 83.75 L 69.664062 103.527344 L 37.84375 85.070312 L 37.84375 48.15625 Z M 84.96875 60.273438 C 85.585938 61.859375 85.917969 63.566406 85.917969 65.347656 C 85.917969 72.371094 80.761719 78.234375 74.046875 79.292969 L 74.046875 66.613281 Z M 90.300781 65.347656 C 90.300781 62.757812 89.777344 60.289062 88.8125 58.054688 L 105.855469 48.15625 L 105.855469 85.070312 L 74.050781 103.527344 L 74.050781 83.75 C 83.183594 82.640625 90.300781 74.820312 90.300781 65.347656 Z M 90.300781 65.347656 " fill-opacity="1" fill-rule="evenodd"/></g><g clip-path="url(#473028417d)"><path fill="#101921" d="M 71.855469 25.894531 L 40.035156 44.351562 L 57.09375 54.230469 C 60.445312 49.722656 65.808594 46.796875 71.855469 46.796875 C 77.902344 46.796875 83.25 49.722656 86.617188 54.230469 L 103.65625 44.351562 Z M 71.855469 25.894531 " fill-opacity="1" fill-rule="nonzero"/></g><g transform="matrix(1, 0, 0, 1, 119, 14)"><g clip-path="url(#e6ff457f63)"><g fill="#101921" fill-opacity="1"><g transform="translate(1.027707, 81.57794)"><g><path d="M 7.90625 0 L 0.164062 0 L 22.5 -60.734375 L 30.082031 -60.734375 L 52.335938 0 L 44.671875 0 L 26.496094 -51.113281 L 26.003906 -51.113281 Z M 10.761719 -23.722656 L 41.820312 -23.722656 L 41.820312 -17.199219 L 10.761719 -17.199219 Z M 10.761719 -23.722656 "/></g></g></g><g fill="#101921" fill-opacity="1"><g transform="translate(51.690737, 81.57794)"><g><path d="M 3.179688 0 L 3.179688 -5.300781 L 29.019531 -38.558594 L 29.019531 -39.046875 L 3.996094 -39.046875 L 3.996094 -45.570312 L 37.988281 -45.570312 L 37.988281 -39.945312 L 12.878906 -7.011719 L 12.878906 -6.523438 L 38.804688 -6.523438 L 38.804688 0 Z M 3.179688 0 "/></g></g></g><g fill="#101921" fill-opacity="1"><g transform="translate(89.799532, 81.57794)"><g><path d="M 22.90625 0.976562 C 18.804688 0.976562 15.203125 0 12.105469 -1.957031 C 9.007812 -3.914062 6.597656 -6.65625 4.871094 -10.191406 C 3.144531 -13.722656 2.28125 -17.824219 2.28125 -22.5 C 2.28125 -27.253906 3.144531 -31.40625 4.871094 -34.953125 C 6.597656 -38.5 9.007812 -41.25 12.105469 -43.207031 C 15.203125 -45.164062 18.804688 -46.140625 22.90625 -46.140625 C 27.039062 -46.140625 30.652344 -45.164062 33.75 -43.207031 C 36.847656 -41.25 39.265625 -38.5 41.003906 -34.953125 C 42.746094 -31.40625 43.613281 -27.253906 43.613281 -22.5 C 43.613281 -17.824219 42.746094 -13.722656 41.003906 -10.191406 C 39.265625 -6.65625 36.847656 -3.914062 33.75 -1.957031 C 30.652344 0 27.039062 0.976562 22.90625 0.976562 Z M 22.90625 -5.300781 C 26.058594 -5.300781 28.640625 -6.101562 30.652344 -7.703125 C 32.664062 -9.308594 34.15625 -11.417969 35.136719 -14.042969 C 36.113281 -16.664062 36.601562 -19.484375 36.601562 -22.5 C 36.601562 -25.570312 36.113281 -28.421875 35.136719 -31.058594 C 34.15625 -33.695312 32.664062 -35.820312 30.652344 -37.4375 C 28.640625 -39.054688 26.058594 -39.863281 22.90625 -39.863281 C 19.808594 -39.863281 17.253906 -39.054688 15.246094 -37.4375 C 13.234375 -35.820312 11.738281 -33.695312 10.761719 -31.058594 C 9.78125 -28.421875 9.292969 -25.570312 9.292969 -22.5 C 9.292969 -19.484375 9.78125 -16.664062 10.761719 -14.042969 C 11.738281 -11.417969 13.234375 -9.308594 15.246094 -7.703125 C 17.253906 -6.101562 19.808594 -5.300781 22.90625 -5.300781 Z M 22.90625 -5.300781 "/></g></g></g><g fill="#101921" fill-opacity="1"><g transform="translate(133.85936, 81.57794)"><g><path d="M 4.484375 17.039062 L 4.484375 -45.570312 L 11.167969 -45.570312 L 11.167969 -38.316406 L 11.984375 -38.316406 C 12.5 -39.101562 13.21875 -40.113281 14.144531 -41.351562 C 15.066406 -42.589844 16.398438 -43.695312 18.136719 -44.671875 C 19.878906 -45.652344 22.226562 -46.140625 25.191406 -46.140625 C 29.019531 -46.140625 32.390625 -45.183594 35.296875 -43.265625 C 38.207031 -41.351562 40.480469 -38.632812 42.125 -35.113281 C 43.769531 -31.597656 44.59375 -27.445312 44.59375 -22.664062 C 44.59375 -17.851562 43.777344 -13.675781 42.144531 -10.128906 C 40.515625 -6.582031 38.246094 -3.84375 35.339844 -1.914062 C 32.433594 0.0117188 29.074219 0.976562 25.273438 0.976562 C 22.363281 0.976562 20.027344 0.480469 18.261719 -0.507812 C 16.496094 -1.5 15.136719 -2.628906 14.183594 -3.894531 C 13.234375 -5.15625 12.5 -6.195312 11.984375 -7.011719 L 11.414062 -7.011719 L 11.414062 17.039062 Z M 24.375 -5.300781 C 27.28125 -5.300781 29.714844 -6.082031 31.671875 -7.644531 C 33.628906 -9.207031 35.101562 -11.304688 36.09375 -13.941406 C 37.085938 -16.574219 37.582031 -19.511719 37.582031 -22.746094 C 37.582031 -25.949219 37.09375 -28.84375 36.113281 -31.425781 C 35.136719 -34.007812 33.675781 -36.058594 31.730469 -37.582031 C 29.789062 -39.101562 27.335938 -39.863281 24.375 -39.863281 C 21.523438 -39.863281 19.128906 -39.152344 17.199219 -37.722656 C 15.273438 -36.296875 13.8125 -34.300781 12.820312 -31.730469 C 11.828125 -29.164062 11.332031 -26.167969 11.332031 -22.746094 C 11.332031 -19.320312 11.835938 -16.296875 12.839844 -13.675781 C 13.84375 -11.054688 15.320312 -9 17.261719 -7.519531 C 19.203125 -6.039062 21.574219 -5.300781 24.375 -5.300781 Z M 24.375 -5.300781 "/></g></g></g><g fill="#101921" fill-opacity="1"><g transform="translate(178.89744, 81.57794)"><g><path d="M 36.683594 -35.296875 L 30.40625 -33.585938 C 29.808594 -35.136719 28.785156 -36.609375 27.328125 -38.007812 C 25.875 -39.410156 23.613281 -40.109375 20.542969 -40.109375 C 17.773438 -40.109375 15.460938 -39.464844 13.613281 -38.171875 C 11.765625 -36.882812 10.84375 -35.269531 10.84375 -33.34375 C 10.84375 -31.601562 11.472656 -30.21875 12.738281 -29.183594 C 14 -28.152344 15.976562 -27.308594 18.667969 -26.65625 L 25.433594 -25.027344 C 29.484375 -24.046875 32.507812 -22.539062 34.503906 -20.503906 C 36.5 -18.464844 37.5 -15.871094 37.5 -12.71875 C 37.5 -10.109375 36.753906 -7.773438 35.257812 -5.707031 C 33.761719 -3.640625 31.683594 -2.011719 29.019531 -0.816406 C 26.359375 0.378906 23.261719 0.976562 19.726562 0.976562 C 15.082031 0.976562 11.242188 -0.0390625 8.214844 -2.078125 C 5.183594 -4.117188 3.261719 -7.066406 2.445312 -10.921875 L 9.050781 -12.554688 C 9.671875 -10.109375 10.875 -8.273438 12.65625 -7.050781 C 14.4375 -5.828125 16.765625 -5.21875 19.648438 -5.21875 C 22.878906 -5.21875 25.46875 -5.917969 27.410156 -7.316406 C 29.355469 -8.714844 30.324219 -10.378906 30.324219 -12.308594 C 30.324219 -15.515625 28.070312 -17.664062 23.558594 -18.75 L 15.976562 -20.542969 C 11.792969 -21.546875 8.722656 -23.085938 6.765625 -25.148438 C 4.808594 -27.214844 3.832031 -29.808594 3.832031 -32.933594 C 3.832031 -35.515625 4.558594 -37.796875 6.011719 -39.78125 C 7.464844 -41.765625 9.457031 -43.320312 11.984375 -44.449219 C 14.511719 -45.578125 17.363281 -46.140625 20.542969 -46.140625 C 25.082031 -46.140625 28.632812 -45.140625 31.203125 -43.144531 C 33.769531 -41.148438 35.597656 -38.53125 36.683594 -35.296875 Z M 36.683594 -35.296875 "/></g></g></g></g></g></svg>



